<?xml version="1.0" encoding="utf-8"?>
<!-- Generator: Adobe Illustrator 24.1.1, SVG Export Plug-In . SVG Version: 6.00 Build 0)  -->
<svg version="1.1" id="Layer_1" xmlns="http://www.w3.org/2000/svg" xmlns:xlink="http://www.w3.org/1999/xlink" x="0px" y="0px"
	 viewBox="0 0 449.79 489.15" style="enable-background:new 0 0 449.79 489.15;" xml:space="preserve">
<style type="text/css">
	.st0{opacity:0.4;fill:#1D1D1B;}
	.st1{fill:#7AC0C7;}
	.st2{fill:#E5D867;}
	.st3{fill:#515151;}
	.st4{fill:none;}
	.st5{fill:#FFD31A;}
	.st6{fill:#F29120;}
	.st7{opacity:0.2;fill:#1D1D1B;}
	.st8{fill:#1D1D1B;}
	.st9{fill:#0A54E7;}
	.st10{fill:#FFFFFF;}
	.st11{fill:#4C6AB0;}
	.st12{fill:#FFFDF9;}
	.st13{fill:#43B0E5;}
	.st14{fill:#F1F1F1;}
	.st15{fill:none;stroke:#231F20;stroke-width:10;stroke-linejoin:round;}
	.st16{fill:none;stroke:#231F20;stroke-width:10;stroke-linejoin:round;stroke-dasharray:30.5926,30.5926;}
	.st17{fill:#E57F62;}
	.st18{fill:#E64750;}
	.st19{fill:#CB6C51;}
	.st20{fill:#C5363E;}
	.st21{fill:#EC8C77;}
	.st22{fill:#B75E43;}
	.st23{fill:#FFBA56;}
	.st24{fill:#EEA73D;}
	.st25{fill:#FFC867;}
	.st26{fill:#F2A895;}
	.st27{fill:#FFB8A7;}
	.st28{fill:#DC8B7A;}
	.st29{fill:none;stroke:#1F191A;stroke-width:2.6832;stroke-linecap:round;stroke-linejoin:round;stroke-miterlimit:10;}
	.st30{fill:#1F191A;stroke:#1F191A;stroke-width:2.6832;stroke-linecap:round;stroke-linejoin:round;stroke-miterlimit:10;}
	.st31{fill:#00B08F;}
	.st32{fill:#008262;}
	.st33{fill:#13C6AB;}
	.st34{opacity:0.4;}
	.st35{fill:#EB4036;}
	.st36{fill:#00FF00;}
	.st37{fill:#0055FF;}
	.st38{fill:#FBFFF9;}
	.st39{fill:#3B4D57;}
	.st40{fill:#2C3A41;}
	.st41{fill:#52B770;}
	.st42{fill:#6BBF85;}
	.st43{fill:#8BCB9B;}
	.st44{fill:#AED8BE;}
	.st45{fill:#F1806E;}
	.st46{fill:#DA7464;}
	.st47{fill:#D5CDB8;}
	.st48{fill:#F7A519;}
	.st49{fill:#DF9618;}
	.st50{fill:#FFD464;}
	.st51{fill:#E4C05C;}
	.st52{fill:#C1C3C8;}
	.st53{fill:#DCDCDC;stroke:#070707;stroke-width:2;stroke-miterlimit:10;}
</style>
<g>
	<path class="st0" d="M286.25,479.2c0.03,0.02,0.06,0.04,0.09,0.07c22.31,16.99,48.23,11.01,69.1-16.75
		c22.42-29.83,19.88-60.71,6.28-70.85c-9.23-6.87-32.45-20.92-46.44-29.24c5.7-14.55,16.41-50.03,10.74-88.29
		c0.01,0,0.02,0.01,0.04,0.01c0.02,0.01,0.04,0.01,0.06,0.02c2.38,0.63,9.38,2.16,20.21,2.02c0.01,0,0.03,0,0.04,0
		c11.2-0.15,26.48-2.09,44.95-8.71c36.16-12.96,53.9-49.68,52.33-75.6c0-0.08-0.01-0.16-0.01-0.24c-0.03-0.41-0.06-0.81-0.1-1.22
		c-0.01-0.14-0.02-0.27-0.04-0.41c-0.04-0.37-0.08-0.73-0.12-1.09c-0.02-0.17-0.04-0.33-0.06-0.5c-0.05-0.34-0.09-0.67-0.15-1.01
		c-0.03-0.19-0.06-0.37-0.09-0.56c-0.05-0.31-0.11-0.63-0.17-0.94c-0.04-0.2-0.08-0.4-0.12-0.59c-0.06-0.29-0.12-0.59-0.19-0.87
		c-0.05-0.21-0.1-0.42-0.15-0.62c-0.07-0.27-0.14-0.55-0.21-0.82c-0.06-0.22-0.13-0.44-0.19-0.66c-0.07-0.25-0.14-0.5-0.22-0.75
		c-0.08-0.26-0.17-0.5-0.26-0.76c-0.07-0.2-0.14-0.41-0.21-0.61c-0.16-0.44-0.33-0.87-0.51-1.3c-0.07-0.16-0.14-0.32-0.21-0.48
		c-0.12-0.27-0.24-0.54-0.36-0.81c-0.08-0.17-0.17-0.34-0.26-0.51c-0.12-0.25-0.24-0.49-0.37-0.73c-0.09-0.17-0.19-0.34-0.28-0.51
		c-0.13-0.23-0.26-0.46-0.4-0.69c-0.1-0.17-0.21-0.33-0.31-0.5c-0.14-0.22-0.28-0.44-0.42-0.65c-0.11-0.16-0.22-0.32-0.33-0.47
		c-0.15-0.21-0.3-0.42-0.46-0.62c-0.12-0.15-0.23-0.3-0.35-0.45c-0.16-0.2-0.33-0.4-0.49-0.59c-0.12-0.14-0.24-0.28-0.36-0.42
		c-0.18-0.19-0.36-0.38-0.54-0.57c-0.12-0.13-0.25-0.26-0.37-0.38c-0.19-0.19-0.39-0.38-0.6-0.56c-0.12-0.11-0.24-0.22-0.37-0.33
		c-0.23-0.2-0.46-0.39-0.7-0.58c-0.11-0.08-0.21-0.17-0.31-0.25c-0.35-0.27-0.7-0.52-1.07-0.77c-0.06-0.04-0.12-0.08-0.18-0.12
		c-0.71-0.47-1.41-0.92-2.1-1.34c-0.24-0.15-0.48-0.27-0.72-0.41c-0.5-0.29-1.01-0.59-1.5-0.85c-0.26-0.14-0.52-0.25-0.77-0.38
		c-0.46-0.23-0.93-0.47-1.39-0.68c-0.25-0.12-0.5-0.21-0.76-0.32c-0.45-0.19-0.91-0.38-1.35-0.55c-0.24-0.09-0.48-0.16-0.72-0.24
		c-0.45-0.15-0.9-0.3-1.34-0.43c-0.23-0.06-0.45-0.11-0.68-0.17c-0.45-0.11-0.89-0.22-1.33-0.31c-0.21-0.04-0.42-0.07-0.63-0.11
		c-0.45-0.08-0.9-0.14-1.34-0.19c-0.2-0.02-0.39-0.03-0.58-0.05c-0.45-0.04-0.9-0.06-1.35-0.07c-0.18,0-0.36,0-0.54,0.01
		c-0.46,0.01-0.92,0.02-1.37,0.06c-0.16,0.01-0.33,0.03-0.49,0.05c-0.47,0.05-0.93,0.11-1.4,0.2c-0.15,0.03-0.3,0.06-0.44,0.09
		c-0.48,0.1-0.96,0.21-1.43,0.34c-0.13,0.04-0.26,0.07-0.39,0.11c-0.49,0.14-0.99,0.31-1.48,0.49c-0.11,0.04-0.22,0.08-0.34,0.12
		c-0.51,0.2-1.03,0.41-1.54,0.65c-0.09,0.04-0.18,0.08-0.27,0.12c-0.54,0.25-1.08,0.53-1.61,0.82c-0.07,0.04-0.13,0.07-0.2,0.11
		c-0.57,0.31-1.14,0.65-1.71,1.01c-0.04,0.02-0.07,0.05-0.11,0.07c-0.61,0.38-1.22,0.79-1.83,1.23c0,0,0,0,0,0l0,0
		c-9.2,6.5-19.1,18.39-32.98,33.65c-5.01,5.5-9.98,9.9-14.8,13.43c-20.11,14.78-37.29,14.25-41.38,13.87c-0.03,0-0.05,0-0.08-0.01
		c-0.11-0.01-0.21-0.02-0.29-0.03c-0.04,0-0.08-0.01-0.12-0.01c-0.07-0.01-0.13-0.02-0.18-0.02c-0.04,0-0.07-0.01-0.1-0.01
		c-0.03,0-0.07-0.01-0.09-0.01c-0.03,0-0.06-0.01-0.06-0.01l0.33,1.02c-0.68-1.18-1.39-2.35-2.12-3.52
		c24.09-14.63,42.05-36.42,49.54-62.6c0.06-0.19,0.11-0.39,0.16-0.58c0.71-2.53,1.32-5.1,1.82-7.7c0.06-0.31,0.12-0.61,0.17-0.92
		c0.23-1.27,0.45-2.55,0.64-3.84c0-0.01,0-0.02,0.01-0.03c3.2-22.14-1.27-43.88-11.63-63.2c4.28-2.08,29.5-14.95,30.69-29.35
		c1.07-12.99-23.09-29.06-36.38-31.96c-0.01,0-0.02,0-0.03-0.01c-0.51-0.11-1.01-0.2-1.48-0.27c-0.14-0.02-0.27-0.04-0.41-0.06
		c-0.21-0.03-0.41-0.05-0.61-0.07c-0.31-0.03-0.62-0.05-0.92-0.06c-0.12,0-0.23,0-0.35,0c-0.26,0-0.51,0.01-0.75,0.03
		c-0.09,0.01-0.18,0.01-0.26,0.02c-0.31,0.03-0.59,0.08-0.86,0.15c-0.07,0.02-0.13,0.03-0.19,0.05c-0.28,0.08-0.54,0.17-0.78,0.28
		c-0.54,0.26-1.06,0.59-1.59,0.99c-7.11,5.39-12.84,22.59-13.83,25.69c-7.81-6.85-16.57-12.95-26.13-18.1
		c-1.15-0.62-2.31-1.23-3.49-1.83c-0.96-0.48-1.92-0.96-2.9-1.42c-1.95-0.93-3.92-1.82-5.92-2.67
		c-12.02-5.12-25.04-8.82-38.81-10.81c-30.32-4.38-59.52,0.24-84,11.58c-0.36-6.93-1.76-22.07-7.13-26.94
		c-6.28-5.69-38.77,1.12-48.01,13.63c-0.09,0.13-0.19,0.25-0.28,0.38c-0.15,0.22-0.29,0.44-0.43,0.66
		c-0.13,0.21-0.25,0.41-0.37,0.62c-0.1,0.19-0.21,0.38-0.3,0.57c-0.13,0.26-0.24,0.53-0.35,0.8c-0.06,0.15-0.13,0.31-0.18,0.46
		c-0.15,0.43-0.28,0.87-0.37,1.31c-1.8,8.7,5.27,19.41,11.81,27.12c3,3.54,5.88,6.44,7.75,8.23c-10.28,10.82-18.2,23.48-23.07,37.51
		c-0.09,0.25-0.18,0.5-0.26,0.75c-0.18,0.52-0.35,1.05-0.51,1.58c-0.11,0.36-0.23,0.71-0.34,1.07c-0.15,0.48-0.29,0.96-0.43,1.44
		c-0.12,0.41-0.24,0.83-0.35,1.24c-0.12,0.45-0.25,0.9-0.36,1.35c-0.12,0.46-0.23,0.91-0.35,1.37c-0.1,0.42-0.21,0.85-0.31,1.28
		c-0.12,0.5-0.23,1.01-0.34,1.52c-0.08,0.39-0.17,0.78-0.25,1.17c-0.12,0.58-0.22,1.16-0.33,1.74c-0.06,0.33-0.13,0.66-0.18,0.99
		c-0.15,0.88-0.29,1.76-0.42,2.65c-0.01,0.04-0.01,0.07-0.02,0.11c-4.58,31.74,6.58,62.65,28.26,86.79
		c-0.74,0.76-1.51,1.56-2.32,2.43c-0.04-0.01-0.09-0.02-0.14-0.03c-0.07-0.01-0.15-0.03-0.24-0.04c-0.06-0.01-0.14-0.03-0.21-0.04
		c-0.1-0.02-0.2-0.04-0.32-0.06c-0.07-0.01-0.15-0.03-0.22-0.05c-0.45-0.1-0.98-0.23-1.59-0.4c-0.1-0.03-0.2-0.05-0.3-0.08
		c-0.18-0.05-0.38-0.11-0.57-0.17c-0.12-0.03-0.23-0.07-0.35-0.11c-0.21-0.06-0.42-0.13-0.64-0.2c-0.12-0.04-0.24-0.08-0.37-0.12
		c-0.23-0.08-0.47-0.16-0.72-0.24c-0.1-0.04-0.21-0.08-0.32-0.12c-0.9-0.32-1.88-0.7-2.92-1.15c-0.1-0.04-0.2-0.08-0.3-0.13
		c-0.3-0.13-0.62-0.28-0.93-0.42c-0.15-0.07-0.29-0.13-0.44-0.2c-0.31-0.15-0.63-0.3-0.95-0.46c-0.15-0.08-0.31-0.15-0.47-0.23
		c-0.33-0.17-0.67-0.34-1.01-0.52c-0.14-0.07-0.27-0.15-0.41-0.22c-1.25-0.67-2.55-1.43-3.89-2.29c-0.07-0.05-0.14-0.09-0.22-0.14
		c-0.38-0.25-0.77-0.5-1.15-0.77c-0.17-0.12-0.34-0.23-0.52-0.35c-0.37-0.26-0.74-0.52-1.12-0.79c-0.19-0.14-0.38-0.28-0.57-0.42
		c-0.38-0.28-0.75-0.56-1.13-0.85c-0.19-0.14-0.37-0.29-0.56-0.44c-0.4-0.31-0.79-0.62-1.19-0.95c-0.12-0.1-0.25-0.21-0.37-0.32
		c-0.94-0.79-1.89-1.62-2.85-2.5c-0.04-0.04-0.08-0.07-0.12-0.11c-0.39-0.36-0.78-0.75-1.17-1.13c-0.21-0.21-0.42-0.41-0.64-0.62
		c-0.37-0.37-0.74-0.75-1.11-1.14c-0.24-0.25-0.47-0.49-0.71-0.74c-0.36-0.39-0.73-0.78-1.09-1.19c-0.24-0.27-0.48-0.55-0.73-0.82
		c-0.36-0.41-0.72-0.83-1.09-1.26c-0.23-0.28-0.47-0.57-0.7-0.86c-0.92-1.12-1.83-2.28-2.74-3.52c0,0,0,0,0,0
		c-3.32-4.51-6.55-9.78-9.54-15.95c-3.46-7.13-6.49-13.62-9.31-19.41c0,0,0,0,0,0c0-0.01-0.01-0.02-0.01-0.02
		c-0.22-0.45-0.43-0.88-0.65-1.32c-0.22-0.45-0.44-0.91-0.66-1.35c-0.21-0.42-0.41-0.83-0.62-1.24c-0.23-0.45-0.45-0.9-0.67-1.34
		c-0.2-0.39-0.4-0.79-0.6-1.17c-0.24-0.46-0.47-0.91-0.71-1.36c-0.18-0.35-0.36-0.7-0.54-1.04c-0.37-0.71-0.75-1.4-1.12-2.08
		c-0.15-0.27-0.3-0.53-0.44-0.8c-0.28-0.5-0.56-1-0.83-1.48c-0.17-0.3-0.34-0.59-0.51-0.88c-0.24-0.41-0.48-0.81-0.71-1.2
		c-0.18-0.29-0.36-0.58-0.53-0.87c-0.24-0.39-0.48-0.76-0.72-1.14c-0.17-0.27-0.34-0.54-0.52-0.8c-0.28-0.43-0.57-0.85-0.85-1.26
		c-0.13-0.18-0.25-0.37-0.38-0.55c-0.4-0.56-0.79-1.1-1.19-1.62c-0.16-0.2-0.31-0.4-0.47-0.6c-0.26-0.33-0.53-0.66-0.79-0.98
		c-0.18-0.21-0.36-0.42-0.53-0.62c-0.25-0.29-0.51-0.58-0.77-0.86c-0.18-0.19-0.36-0.39-0.54-0.58c-0.28-0.29-0.56-0.56-0.84-0.84
		c-0.16-0.15-0.32-0.31-0.48-0.46c-0.43-0.4-0.87-0.78-1.31-1.14c-0.13-0.11-0.27-0.2-0.4-0.31c-0.33-0.26-0.66-0.51-0.99-0.74
		c-0.19-0.13-0.37-0.25-0.56-0.38c-0.29-0.19-0.59-0.38-0.89-0.56c-0.2-0.12-0.4-0.23-0.6-0.34c-0.31-0.17-0.62-0.33-0.94-0.49
		c-0.19-0.09-0.38-0.19-0.57-0.28c-0.42-0.19-0.84-0.36-1.27-0.52c-0.1-0.04-0.19-0.08-0.29-0.11c-0.52-0.18-1.05-0.34-1.59-0.49
		c-0.19-0.05-0.38-0.09-0.58-0.14c-0.37-0.09-0.74-0.17-1.12-0.24c-0.22-0.04-0.44-0.07-0.67-0.11c-0.37-0.05-0.75-0.1-1.13-0.14
		c-0.22-0.02-0.45-0.04-0.67-0.06c-0.44-0.03-0.88-0.04-1.33-0.05c-0.18,0-0.35-0.01-0.53-0.01c-0.63,0-1.27,0.03-1.92,0.08
		c-0.16,0.01-0.33,0.03-0.49,0.05c-0.51,0.04-1.02,0.1-1.54,0.17c-0.24,0.03-0.49,0.07-0.74,0.11c-0.46,0.07-0.93,0.15-1.41,0.25
		c-0.26,0.05-0.53,0.1-0.79,0.16c-0.51,0.11-1.02,0.23-1.54,0.36c-0.24,0.06-0.47,0.11-0.72,0.18c-0.77,0.2-1.55,0.43-2.35,0.68
		c-0.54,0.17-1.07,0.37-1.59,0.58c-0.15,0.06-0.29,0.12-0.44,0.19c-0.41,0.18-0.82,0.37-1.22,0.57c-0.11,0.06-0.23,0.11-0.35,0.17
		c-0.5,0.27-0.99,0.55-1.48,0.86c-0.08,0.05-0.16,0.11-0.25,0.16c-0.41,0.27-0.81,0.55-1.21,0.85c-0.11,0.08-0.23,0.17-0.34,0.26
		c-0.94,0.73-1.84,1.54-2.7,2.42c-0.07,0.07-0.13,0.14-0.2,0.21c-0.39,0.41-0.77,0.83-1.14,1.27c-0.04,0.05-0.09,0.1-0.14,0.16
		c-0.84,1.01-1.64,2.1-2.39,3.26c-0.03,0.04-0.05,0.08-0.08,0.12c-13.84,21.64-10.57,67.3,21.45,93.39
		c0.08,0.06,0.16,0.13,0.24,0.19c0.96,0.78,1.95,1.55,2.96,2.29c32.78,23.95,58.12,24.86,61.27,24.88
		c-10.73,22.07-18.84,51.3-15.87,87.29c-15.67,4.24-42.12,11.59-52.94,15.76c-6.53,2.52-12.19,8.95-15.64,18.07
		c-0.2,0.53-0.4,1.06-0.58,1.59c0,0.01-0.01,0.03-0.01,0.04c-0.28,0.82-0.53,1.67-0.78,2.54c-0.15,0.53-0.28,1.06-0.42,1.59
		c-0.06,0.23-0.11,0.45-0.17,0.68c-2.76,11.54-1.83,23.82,1.27,35.32c0.05,0.2,0.1,0.41,0.16,0.61c0.2,0.73,0.42,1.45,0.64,2.17
		c0.11,0.35,0.2,0.7,0.31,1.05c0.21,0.68,0.44,1.36,0.67,2.03c0.13,0.37,0.24,0.75,0.38,1.12c0.35,1,0.72,1.99,1.1,2.96
		c0.02,0.05,0.03,0.1,0.05,0.14c0,0.01,0.01,0.01,0.01,0.02c0.39,1,0.8,2.01,1.23,3.01c0.05,0.13,0.11,0.25,0.16,0.37
		c0.37,0.86,0.76,1.72,1.16,2.58c0.08,0.17,0.16,0.33,0.23,0.5c0.38,0.79,0.77,1.58,1.17,2.36c0.09,0.18,0.18,0.36,0.27,0.53
		c0.39,0.75,0.8,1.5,1.22,2.24c0.11,0.19,0.21,0.38,0.32,0.56c0.41,0.71,0.83,1.42,1.26,2.11c0.12,0.2,0.24,0.39,0.36,0.59
		c0.42,0.66,0.84,1.31,1.28,1.96c0.12,0.18,0.24,0.35,0.36,0.53c0.43,0.63,0.87,1.24,1.33,1.85c0.11,0.15,0.22,0.3,0.33,0.44
		c0.45,0.6,0.92,1.19,1.39,1.77c0.13,0.16,0.26,0.33,0.39,0.49c0.45,0.54,0.91,1.07,1.38,1.59c0.18,0.2,0.35,0.4,0.53,0.59
		c0.43,0.46,0.86,0.92,1.31,1.37c0.24,0.25,0.49,0.49,0.73,0.73c0.31,0.3,0.63,0.6,0.95,0.89c0.43,0.39,0.85,0.77,1.29,1.15
		c0.08,0.07,0.16,0.14,0.24,0.21c13.58,11.53,30.78,13.13,48.99,3.6c27.51-14.4,58.8-45.47,60.7-47.37
		c0.06-0.06,0.09-0.09,0.09-0.09l-1.58-2.31c1.22,0.52,2.43,1.02,3.65,1.51c0.33,0.13,0.66,0.27,0.99,0.4
		c1.02,0.41,2.04,0.8,3.06,1.19c0.21,0.08,0.42,0.16,0.62,0.24c1.19,0.45,2.37,0.88,3.55,1.3c0.32,0.12,0.64,0.23,0.97,0.34
		c0.93,0.33,1.85,0.65,2.77,0.96c0.31,0.11,0.62,0.21,0.93,0.32c1.14,0.38,2.26,0.75,3.38,1.11c0.32,0.1,0.63,0.2,0.94,0.29
		c0.85,0.27,1.69,0.53,2.53,0.78c0.39,0.12,0.78,0.23,1.16,0.35c1.02,0.3,2.03,0.6,3.03,0.88c0.35,0.1,0.69,0.19,1.03,0.29
		c0.77,0.21,1.53,0.42,2.28,0.62c0.45,0.12,0.9,0.24,1.35,0.36c0.66,0.17,1.31,0.34,1.96,0.5c0.59,0.15,1.18,0.3,1.77,0.44
		c0.68,0.17,1.36,0.33,2.03,0.49c0.5,0.12,0.98,0.23,1.47,0.34c0.47,0.11,0.93,0.21,1.39,0.31c0.49,0.11,0.97,0.22,1.45,0.32
		c0,0,0.01,0,0.01,0v0c5.19,1.12,9.74,1.91,13.34,2.41c13.78,1.89,28.28,0.23,39.3-1.89l1.71,3.39c0,0,22.44,40.13,45.78,62.07
		c0.78,0.73,1.56,1.43,2.35,2.1c0.12,0.1,0.24,0.19,0.36,0.29C284.83,478.09,285.54,478.66,286.25,479.2z"/>
	<g>
		<path class="st17" d="M166.4,32.88c0,0-0.21-24.09-7.25-30.47c-7.04-6.38-47.08,2.96-50.28,18.42
			c-3.21,15.47,21.65,37.3,21.65,37.3"/>
		<path class="st18" d="M156.37,39.26c0,0-1.38-16.54-4.78-19.82s-22.9,1.78-24.54,9.86c-1.64,8.08,12.3,21.26,12.3,21.26"/>
		<path class="st19" d="M166.21,28.36c-17.12,6.93-37.7-2.74-51.44-16.08c-3.09,2.55-5.26,5.42-5.91,8.55
			c-3.21,15.47,21.65,37.3,21.65,37.3l35.89-25.25C166.4,32.88,166.37,31.07,166.21,28.36z"/>
		<path class="st20" d="M130.8,24.13c-1.95,1.51-3.36,3.25-3.75,5.16c-1.64,8.08,12.3,21.26,12.3,21.26l17.01-11.29
			c0,0-0.34-4.08-1.1-8.6C147.06,30.94,138.6,28.36,130.8,24.13z"/>
		<path class="st17" d="M327.36,53.09c0,0,7.01-23.04,15.57-27.17c8.56-4.13,44.32,16.15,43.02,31.89
			c-1.3,15.74-31.32,29.65-31.32,29.65"/>
		<path class="st18" d="M337.94,62.45c0,0,6-15.47,10.19-17.66c4.18-2.19,21.46,8.19,20.75,16.4c-0.71,8.21-17.81,16.91-17.81,16.91
			"/>
		<path class="st19" d="M356.85,28.29c-5.97-2.56-11.26-3.64-13.91-2.36c-8.56,4.13-15.57,27.17-15.57,27.17l27.28,34.37
			c0,0,9.07-4.21,17.46-10.62C360.69,64.48,356.87,45.9,356.85,28.29z"/>
		<path class="st20" d="M358.65,48c-4.28-2.67-8.68-4.18-10.53-3.21c-4.18,2.19-10.19,17.66-10.19,17.66l13.13,15.64
			c0,0,9.26-4.72,14.43-10.48C362.21,61.66,360.01,54.97,358.65,48z"/>
		<path class="st17" d="M127.28,201.24c0,0-28.26-3.43-47.07-42.23c-18.82-38.8-25.06-58.65-52.93-49.92s-32.35,75.15,11.16,106.94
			c35.05,25.61,61.6,24.88,61.6,24.88"/>
		<path class="st21" d="M45.17,149.58c7.96-0.85,17.93-4.4,25.73-9.98c-12.53-25.71-20.87-37.64-43.62-30.51
			c-9.66,3.03-16.51,13-19.52,26.05C17.7,144.28,32.15,150.96,45.17,149.58z"/>
		<path class="st19" d="M127.28,201.24c0,0-19.98-2.43-37.53-26.28c-7.84,7.8-18.13,13.5-28.01,18.73
			c-11.07,5.86-22.64,10.28-34.68,12.08c3.36,3.69,7.13,7.15,11.39,10.27c35.05,25.61,61.6,24.88,61.6,24.88L127.28,201.24z"/>
		<path class="st17" d="M316.33,228.54c0,0,28.07,4.7,57.1-27.19c29.02-31.89,40.63-49.17,64.89-32.91
			c24.26,16.26,9.77,81.23-40.96,99.42c-40.86,14.65-66.12,6.44-66.12,6.44"/>
		<path class="st21" d="M406.41,167.7c-2.72,3.2-5.09,6.73-7.15,10.49c-9.58,17.46-11.25,41.14-5.3,60.06
			c2.82,8.99,8.4,17.22,15.61,23.95c40.71-23.31,50.94-78.89,28.76-93.76C425.66,159.96,416.45,160.62,406.41,167.7z"/>
		<path class="st19" d="M358.31,252.89c0.98-10.22,4.28-26.78,0.32-38.11c-23.08,16.96-42.3,13.76-42.3,13.76l14.9,45.75
			c0,0,8.63,2.8,23.95,2.21C356.7,268.92,357.53,261.06,358.31,252.89z"/>
		<path class="st17" d="M361.48,462.9c22.42-29.83,19.88-60.71,6.28-70.85c-9.23-6.87-32.45-20.92-46.44-29.24
			c8.47-21.61,27.97-89.35-11.5-143.8l-172.61-27.75c0,0-60.75,47.71-53.37,136.94c-15.67,4.24-42.12,11.59-52.94,15.76
			c-15.82,6.1-26.58,35.16-13.01,69.92c13.57,34.76,39.52,46.89,67.9,32.04c28.39-14.85,60.8-47.46,60.8-47.46l-1.58-2.31
			c21.78,9.3,43.82,14.14,55.66,15.76c13.78,1.89,28.28,0.23,39.3-1.89l1.71,3.39c0,0,22.44,40.13,45.78,62.07
			C310.8,497.43,339.06,492.73,361.48,462.9z"/>
		<path class="st19" d="M145.01,396.16c15.16,6.48,30.44,10.78,42.32,13.35c-3.82-13.62-5.09-27.97-3.13-42.49
			c1.23-9.11,3.3-18.19,7.02-26.63c2.73-6.19,9.18-20.43,17.21-20.1c5.24,0.21,8.3,5.61,10.97,9.42c0.98,1.4,6.29,7.59,5.26,9.49
			c4.32-7.95,6.36-17.01,7.55-25.92c0.96-7.16-1.58-18.71,6.97-21.36c7.87-2.43,14.46,8.19,21.15,6.59
			c7.66-1.83-1.15-18.21-1.48-23.41c-0.47-7.4,2.65-13.55,7.18-19.09c7.12-8.71,15.73-15.51,13.71-28.29
			c-0.89-5.68-4.27-9.99-6.91-14.65l-135.64-21.8c0,0-60.75,47.71-53.37,136.94c-15.67,4.24-42.12,11.59-52.94,15.76
			c-15.82,6.1-26.58,35.16-13.01,69.92c13.57,34.76,39.52,46.89,67.9,32.04c28.39-14.85,60.8-47.46,60.8-47.46L145.01,396.16z"/>
		<path class="st22" d="M146.59,398.46l-0.91-1.32c-0.17-0.1-0.33-0.21-0.5-0.32c-4.98-1.86-9.41-4.74-13.56-8.14
			c-8.23,20.28-23.36,39.76-40.99,53.4c-1.15,1.07-2.31,2.12-3.5,3.13C115.18,430.06,146.59,398.46,146.59,398.46z"/>
		<path class="st22" d="M77.95,445.98c2.87-2.29,5.33-5.27,7.19-8.95c9.33-18.41,4.24-41.45-4.8-58.84
			c-5.46-10.51-13.35-19.75-22.88-26.79c-8.28-6.11-18.29-12.04-28.4-6.5c-7.05,3.87-11.84,11.27-14.37,18.72
			c-5.53,16.27-2.92,34.56,3.21,50.26c5.67,14.53,15.15,29.18,30.14,35.33C58.38,453.47,69.81,452.49,77.95,445.98z"/>
		<path class="st22" d="M83.79,327.35c8.05-0.26,15.76-1.6,22.79-6.62c5.4-3.86,10.95-9.11,17.84-9.96
			c19.54-2.41,13.73,26.3,28.86,28.98c5.79,1.03,10.76-3.22,15.29-6.15c3.73-2.42,7.73-4.58,10.11-8.47
			c2.74-4.48,3.43-10.13,5.15-15.06c1.76-5.03,3.96-9.9,6.26-14.7c4.8-10.04,10.31-19.94,13.23-30.75
			c2.64-9.79,3.39-20.15,2.87-30.25c-0.57-11.13-2.74-22.68-7.14-33.15l-61.84-9.94C137.21,191.27,76.88,238.68,83.79,327.35z"/>
		<path class="st19" d="M293.93,380.88c-3.71,2.05,15.94,26.96,18.53,29.59c-0.21-0.2-7.56,9.98-8.08,10.72
			c-1.45,2.07-2.97,4.12-4.3,6.27c-6.28,10.18-10.07,25.43-8.18,37.3c0.16,1.02,0.35,2.03,0.6,3.03
			c2.13,8.77,7.72,15.67,15.01,19.65c-6.9-2.02-13.65-5.96-20.04-11.96c-23.34-21.94-45.78-62.07-45.78-62.07l-1.71-3.39
			c-0.32,0.06-0.68,0.12-1,0.18C258.82,404.89,275.67,390.97,293.93,380.88z"/>
		<path class="st23" d="M68.37,391.8c7.22,20.3,3.48,40.17-8.34,44.37c-11.83,4.21-27.26-8.84-34.48-29.14
			c-7.22-20.3-3.48-40.17,8.34-44.37S61.15,371.5,68.37,391.8z"/>
		<path class="st24" d="M53.54,414.22c-7.51-15.11-12.84-34.08-12.17-52.06c-2.57-0.47-5.1-0.35-7.48,0.49
			c-11.83,4.21-15.56,24.07-8.34,44.37c7.22,20.3,22.66,33.35,34.48,29.14c2.12-0.75,3.97-2.03,5.56-3.71
			C60.87,427.02,56.82,420.84,53.54,414.22z"/>
		<path class="st23" d="M318.93,427.98c-12.67,17.43-14.7,37.54-4.55,44.92s28.65-0.77,41.32-18.2
			c12.67-17.43,14.7-37.54,4.55-44.92S331.59,410.55,318.93,427.98z"/>
		<path class="st25" d="M337.55,441.37c-1.29,9.49-1.15,19.26,0.16,28.75c0.05,0.35,0.13,0.68,0.19,1.03
			c6.26-3.59,12.53-9.2,17.79-16.44c12.67-17.43,14.7-37.54,4.55-44.92c-2.75-2-6.13-2.82-9.83-2.67
			C343.59,417.25,339.25,428.9,337.55,441.37z"/>
		
			<ellipse transform="matrix(0.1429 -0.9897 0.9897 0.1429 70.6568 343.9081)" class="st17" cx="233.89" cy="131.16" rx="114.56" ry="134.38"/>
		<path class="st21" d="M285.24,122.09c20.82,20.65,48.52,38.08,77.67,45.15c1.79-5.43,3.14-11.07,3.98-16.88
			c9.04-62.62-43.17-121.99-116.62-132.59c-3.56-0.51-7.1-0.87-10.62-1.14C237.39,54.63,260.86,97.91,285.24,122.09z"/>
		<path class="st19" d="M195.48,161.85c-29.73-30.83-53.6-74.92-52.65-118.46c-22.41,16.91-37.91,40.7-41.93,68.56
			c-9.04,62.62,43.17,121.99,116.62,132.59c31.87,4.6,62.49-0.74,87.69-13.38C263.41,219.4,224.63,192.08,195.48,161.85z"/>
		<g>
			<path class="st23" d="M168.73,89.57l-31.77,6.69c-4.54,0.96-9-1.95-9.95-6.49l0,0c-0.96-4.54,1.95-9,6.49-9.95l31.77-6.69
				c4.54-0.96,9,1.95,9.95,6.49l0,0C176.18,84.16,173.27,88.61,168.73,89.57z"/>
			<path class="st23" d="M305.56,109.33l28.58,15.4c4.09,2.2,9.18,0.67,11.38-3.41l0,0c2.2-4.09,0.67-9.18-3.41-11.38l-28.58-15.4
				c-4.09-2.2-9.18-0.67-11.38,3.41l0,0C299.95,102.03,301.48,107.12,305.56,109.33z"/>
		</g>
		<path class="st26" d="M280.03,176.27c5.11,24.52-9.59,44.56-57.92,38.63c-47.45-5.83-55.75-28.07-46.85-51.49
			c9.38-24.7,40.59-40.75,57.92-38.63C254.73,127.42,274.29,148.73,280.03,176.27z"/>
		<path class="st27" d="M248.64,175.53c8.29,10.5,18.85,16.64,30.49,20.4c2.18-5.83,2.38-12.56,0.9-19.67
			c-5.65-27.09-24.66-48.11-45.8-51.31C232.82,142.83,237.52,161.44,248.64,175.53z"/>
		<path class="st28" d="M222.74,198.85c-16.15-17.04-24.92-40.39-23.6-63.45c-10.3,6.8-19.49,16.44-23.89,28
			c-8.9,23.43-0.59,45.67,46.85,51.49c8.1,0.99,15.22,1.24,21.49,0.87C235.84,211.02,228.75,205.2,222.74,198.85z"/>
		<g>
			<path class="st29" d="M280.03,176.27c5.11,24.52-9.59,44.56-57.92,38.63c-47.45-5.83-55.75-28.07-46.85-51.49
				c9.38-24.7,40.59-40.75,57.92-38.63C254.73,127.42,274.29,148.73,280.03,176.27z"/>
			<path class="st30" d="M211.09,147.36c-1.86-8.92,3.49-16.2,21.06-14.04c17.25,2.12,20.27,10.2,17.03,18.72
				c-3.41,8.98-14.76,14.82-21.06,14.04C220.29,165.11,213.18,157.37,211.09,147.36z"/>
			<g>
				<path class="st30" d="M175.12,135.64c-0.55,3.84-4.11,6.5-7.95,5.95c-3.84-0.55-6.5-4.11-5.95-7.95
					c0.55-3.84,4.11-6.5,7.95-5.95C173.01,128.24,175.67,131.8,175.12,135.64z"/>
				<path class="st30" d="M300.3,153.71c-0.55,3.84-4.11,6.5-7.95,5.95s-6.5-4.11-5.95-7.95c0.55-3.84,4.11-6.5,7.95-5.95
					C298.2,146.32,300.86,149.88,300.3,153.71z"/>
			</g>
			<g>
				<path class="st29" d="M227.54,165.99l-3.63,25.14c0,0-0.66,6.88-7.25,5.93c-6.6-0.95-4.53-11.96-4.53-11.96"/>
				<path class="st29" d="M227.54,165.99l-3.63,25.14c0,0-1.32,6.78,5.28,7.74c6.6,0.95,7.72-10.19,7.72-10.19"/>
			</g>
			<g>
				<path class="st31" d="M214.51,272.67c0,0-27.3,43.91-30.82,67.69l-5.5-18.62l-17.06,8.9c0,0,4.21-14.28,22.77-40.97l23.07-20.5
					L214.51,272.67z"/>
				<path class="st31" d="M214.72,272.54c0,0,12.09,50.27,7.95,73.95l11.08-15.94l13.39,13.82c0,0,0.5-14.88-8.72-46.05
					l-15.45-26.72L214.72,272.54z"/>
				<path class="st32" d="M149.75,304.35c4.19,6.29,29.75-7.3,56.44-35.84C191.37,264.12,145.56,298.06,149.75,304.35"/>
				<path class="st33" d="M205.61,267.93c-15.7,1.73-27.51,8.75-39.88,18.56c-3.24,2.57-6.41,5.25-9.24,8.26
					c-2.65,2.81-5.22,5.69-7.22,8.99c-4.37-5.45-6.1-12.72-5.62-19.69c0.47-6.97,3-13.67,6.37-19.79c1.78-3.23,3.87-6.65,3.4-10.3
					c-0.43-3.32-2.88-5.96-4.93-8.61c-3.23-4.17-5.77-9.08-6.13-14.35c-0.36-5.27,1.79-10.9,6.24-13.74c0,0,29.22,19.55,57.5,25.19
					L205.61,267.93z"/>
				<path class="st31" d="M162.83,237.53c9.66,2.51,18.05,7.81,27.29,11.34c5.21,1.99,10.47,2.97,15.78,3.38l0.18-9.78
					c-28.28-5.64-57.5-25.19-57.5-25.19c-4.45,2.84-6.6,8.47-6.24,13.74c0.21,3.05,1.16,5.98,2.54,8.72
					C150,235.79,156.77,235.96,162.83,237.53z"/>
				<path class="st32" d="M266.92,320.93c-5.74,4.91-26.64-15.12-44.55-49.84C237.82,270.89,272.67,316.01,266.92,320.93"/>
				<path class="st33" d="M223.08,270.68c14.63,5.94,24.09,15.9,33.32,28.72c2.42,3.36,4.74,6.8,6.65,10.47
					c1.79,3.43,3.47,6.89,4.5,10.62c5.69-4.05,9.33-10.58,10.77-17.41c1.44-6.84,0.83-13.97-0.75-20.78
					c-0.83-3.59-1.91-7.45-0.47-10.84c1.32-3.08,4.39-4.95,7.09-6.94c4.25-3.13,8.03-7.17,9.8-12.14
					c1.78-4.97,1.24-10.97-2.27-14.92c0,0-33.44,10.86-62.18,8.59L223.08,270.68z"/>
				<path class="st31" d="M245.52,274.23c1.42-1.97,3.55-2.79,5.82-3.35c4.81-1.18,7.32-1.56,2.29-5.62c-3.35-2.71-6.85-5-9.99-7.99
					c-0.65-0.62-0.65-1.54,0.05-2.12c5.89-4.91,15.47-3.52,22.58-3.81c10.78-0.43,18.62-6.02,26.92-11.79
					c-0.42-0.74-0.88-1.46-1.46-2.11c0,0-33.44,10.86-62.18,8.59l-6.47,24.64c8.93,3.62,15.93,8.75,22.12,15.11
					C243.83,281.85,243.18,277.49,245.52,274.23z"/>
				<path class="st31" d="M229.99,247.29c0.44,1.67,0.56,3.46,0.3,5.28l-1.19,8.23c-1.05,7.27-7.79,12.31-15.06,11.26l0,0
					c-7.27-1.05-12.31-7.79-11.26-15.06l1.19-8.23c0.26-1.82,0.88-3.49,1.77-4.97"/>
				<path class="st33" d="M219.09,259.18c2.07,3.2,5.06,5.36,8.35,6.36c0.82-1.42,1.41-3.01,1.66-4.73l1.19-8.23
					c0.26-1.82,0.14-3.61-0.3-5.28l-15.14-2.18C214.66,250.02,216.64,255.4,219.09,259.18z"/>
			</g>
		</g>
	</g>
</g>
</svg>
