<?xml version="1.0" encoding="utf-8"?>
<!-- Generator: Adobe Illustrator 24.1.1, SVG Export Plug-In . SVG Version: 6.00 Build 0)  -->
<svg version="1.1" id="Layer_1" xmlns="http://www.w3.org/2000/svg" xmlns:xlink="http://www.w3.org/1999/xlink" x="0px" y="0px"
	 viewBox="0 0 239.56 220.46" style="enable-background:new 0 0 239.56 220.46;" xml:space="preserve">
<style type="text/css">
	.st0{opacity:0.4;fill:#1D1D1B;}
	.st1{fill:#7AC0C7;}
	.st2{fill:#E5D867;}
	.st3{fill:#515151;}
	.st4{fill:none;}
	.st5{fill:#FFD31A;}
	.st6{fill:#F29120;}
	.st7{opacity:0.2;fill:#1D1D1B;}
	.st8{fill:#1D1D1B;}
	.st9{fill:#0A54E7;}
	.st10{fill:#FFFFFF;}
	.st11{fill:#4C6AB0;}
	.st12{fill:#FFFDF9;}
	.st13{fill:#43B0E5;}
	.st14{fill:#F1F1F1;}
	.st15{fill:none;stroke:#231F20;stroke-width:10;stroke-linejoin:round;}
	.st16{fill:none;stroke:#231F20;stroke-width:10;stroke-linejoin:round;stroke-dasharray:30.5926,30.5926;}
	.st17{fill:#E57F62;}
	.st18{fill:#E64750;}
	.st19{fill:#CB6C51;}
	.st20{fill:#C5363E;}
	.st21{fill:#EC8C77;}
	.st22{fill:#B75E43;}
	.st23{fill:#FFBA56;}
	.st24{fill:#EEA73D;}
	.st25{fill:#FFC867;}
	.st26{fill:#F2A895;}
	.st27{fill:#FFB8A7;}
	.st28{fill:#DC8B7A;}
	.st29{fill:none;stroke:#1F191A;stroke-width:2.6832;stroke-linecap:round;stroke-linejoin:round;stroke-miterlimit:10;}
	.st30{fill:#1F191A;stroke:#1F191A;stroke-width:2.6832;stroke-linecap:round;stroke-linejoin:round;stroke-miterlimit:10;}
	.st31{fill:#00B08F;}
	.st32{fill:#008262;}
	.st33{fill:#13C6AB;}
	.st34{opacity:0.4;}
	.st35{fill:#EB4036;}
	.st36{fill:#00FF00;}
	.st37{fill:#0055FF;}
	.st38{fill:#FBFFF9;}
	.st39{fill:#3B4D57;}
	.st40{fill:#2C3A41;}
	.st41{fill:#52B770;}
	.st42{fill:#6BBF85;}
	.st43{fill:#8BCB9B;}
	.st44{fill:#AED8BE;}
	.st45{fill:#F1806E;}
	.st46{fill:#DA7464;}
	.st47{fill:#D5CDB8;}
	.st48{fill:#F7A519;}
	.st49{fill:#DF9618;}
	.st50{fill:#FFD464;}
	.st51{fill:#E4C05C;}
	.st52{fill:#C1C3C8;}
	.st53{fill:#DCDCDC;stroke:#070707;stroke-width:2;stroke-miterlimit:10;}
</style>
<g>
	<path class="st0" d="M223.31,22.33L69.28,26.61c-3.81,0.11-6.81,3.28-6.71,7.09l0.71,25.59L4.74,73.32
		c-3.32,0.8-5.36,4.13-4.57,7.45l32.34,134.96c0.8,3.32,4.13,5.36,7.45,4.57l113.26-27.14l74.77-2.08c3.81-0.11,6.81-3.28,6.71-7.09
		L230.4,29.03C230.29,25.22,227.12,22.22,223.31,22.33z"/>
	<path class="st1" d="M183.54,171.71c0.8,3.32-1.25,6.65-4.57,7.45L44.81,211.3c-3.32,0.8-6.65-1.25-7.45-4.57L5.02,71.78
		c-0.79-3.32,1.25-6.65,4.57-7.45l134.16-32.15c3.32-0.8,6.65,1.25,7.45,4.57L183.54,171.71z"/>
	<path class="st2" d="M239.55,174.99c0.11,3.81-2.9,6.98-6.71,7.09l-154.03,4.28c-3.81,0.11-6.98-2.9-7.09-6.71L67.42,24.71
		c-0.11-3.81,2.9-6.98,6.71-7.09l154.03-4.28c3.81-0.11,6.98,2.9,7.09,6.71L239.55,174.99z"/>
	
		<rect x="91.64" y="74.74" transform="matrix(0.9996 -0.0278 0.0278 0.9996 -2.0406 4.3867)" class="st3" width="130.4" height="1.78"/>
	
		<rect x="90.96" y="50.73" transform="matrix(0.9996 -0.0278 0.0278 0.9996 -1.3899 3.1987)" class="st3" width="46.92" height="1.78"/>
	
		<rect x="94.08" y="163.09" transform="matrix(0.9996 -0.0278 0.0278 0.9996 -4.5143 3.0412)" class="st3" width="26.22" height="1.78"/>
	
		<rect x="91.97" y="86.46" transform="matrix(0.9996 -0.0278 0.0278 0.9996 -2.3663 4.4003)" class="st3" width="130.4" height="1.78"/>
	
		<rect x="92.33" y="99.57" transform="matrix(0.9996 -0.0278 0.0278 0.9996 -2.7302 4.4154)" class="st3" width="130.4" height="1.78"/>
	
		<rect x="92.7" y="112.9" transform="matrix(0.9996 -0.0278 0.0278 0.9996 -3.1005 4.4309)" class="st3" width="130.4" height="1.78"/>
	<path class="st3" d="M214.69,46.8c-0.12-0.48-13.1-47.15-25.7-46.8c-0.16,0-0.31,0.02-0.47,0.04c-2.85,0.35-4.83,1.6-5.87,3.71
		c-1.58,3.22-0.52,7.74,0.86,11.32l2.96-0.08c-1.4-3.37-2.56-7.56-1.34-10.02c0.61-1.24,1.83-1.96,3.73-2.19
		c0.08-0.01,0.17-0.02,0.26-0.02c7.66-0.21,19.48,31.08,22.9,44.72c1.21,4.81-1.22,9.01-4.26,10.28c-3.6,1.51-7.73-0.84-11.03-6.28
		c-9.87-16.27-15.34-35.1-15.39-35.29c-0.21-0.73-0.98-1.15-1.71-0.94c-0.73,0.21-1.16,0.97-0.95,1.71
		c0.06,0.19,5.62,19.37,15.69,35.96c4.11,6.78,8.46,8.12,11.41,8.03c1.38-0.04,2.45-0.39,3.04-0.63
		C213.59,58.3,216.12,52.5,214.69,46.8z"/>
	<path class="st3" d="M192.92,9.94c-0.25-0.56-0.91-0.8-1.46-0.55c-0.56,0.25-0.8,0.91-0.55,1.46l1.79,3.97l2.39-0.07L192.92,9.94z"
		/>
</g>
</svg>
