<?xml version="1.0" encoding="utf-8"?>
<!-- Generator: Adobe Illustrator 24.1.1, SVG Export Plug-In . SVG Version: 6.00 Build 0)  -->
<svg version="1.1" id="Layer_1" xmlns="http://www.w3.org/2000/svg" xmlns:xlink="http://www.w3.org/1999/xlink" x="0px" y="0px"
	 viewBox="0 0 124.66 192.29" style="enable-background:new 0 0 124.66 192.29;" xml:space="preserve">
<style type="text/css">
	.st0{opacity:0.4;fill:#1D1D1B;}
	.st1{fill:#7AC0C7;}
	.st2{fill:#E5D867;}
	.st3{fill:#515151;}
	.st4{fill:none;}
	.st5{fill:#FFD31A;}
	.st6{fill:#F29120;}
	.st7{opacity:0.2;fill:#1D1D1B;}
	.st8{fill:#1D1D1B;}
	.st9{fill:#0A54E7;}
	.st10{fill:#FFFFFF;}
	.st11{fill:#4C6AB0;}
	.st12{fill:#FFFDF9;}
	.st13{fill:#43B0E5;}
	.st14{fill:#F1F1F1;}
	.st15{fill:none;stroke:#231F20;stroke-width:10;stroke-linejoin:round;}
	.st16{fill:none;stroke:#231F20;stroke-width:10;stroke-linejoin:round;stroke-dasharray:30.5926,30.5926;}
	.st17{fill:#E57F62;}
	.st18{fill:#E64750;}
	.st19{fill:#CB6C51;}
	.st20{fill:#C5363E;}
	.st21{fill:#EC8C77;}
	.st22{fill:#B75E43;}
	.st23{fill:#FFBA56;}
	.st24{fill:#EEA73D;}
	.st25{fill:#FFC867;}
	.st26{fill:#F2A895;}
	.st27{fill:#FFB8A7;}
	.st28{fill:#DC8B7A;}
	.st29{fill:none;stroke:#1F191A;stroke-width:2.6832;stroke-linecap:round;stroke-linejoin:round;stroke-miterlimit:10;}
	.st30{fill:#1F191A;stroke:#1F191A;stroke-width:2.6832;stroke-linecap:round;stroke-linejoin:round;stroke-miterlimit:10;}
	.st31{fill:#00B08F;}
	.st32{fill:#008262;}
	.st33{fill:#13C6AB;}
	.st34{opacity:0.4;}
	.st35{fill:#EB4036;}
	.st36{fill:#00FF00;}
	.st37{fill:#0055FF;}
	.st38{fill:#FBFFF9;}
	.st39{fill:#3B4D57;}
	.st40{fill:#2C3A41;}
	.st41{fill:#52B770;}
	.st42{fill:#6BBF85;}
	.st43{fill:#8BCB9B;}
	.st44{fill:#AED8BE;}
	.st45{fill:#F1806E;}
	.st46{fill:#DA7464;}
	.st47{fill:#D5CDB8;}
	.st48{fill:#F7A519;}
	.st49{fill:#DF9618;}
	.st50{fill:#FFD464;}
	.st51{fill:#E4C05C;}
	.st52{fill:#C1C3C8;}
	.st53{fill:#DCDCDC;stroke:#070707;stroke-width:2;stroke-miterlimit:10;}
</style>
<g>
	<g id="clips_4_" class="st34">
		<path id="clip_8_" class="st8" d="M10.63,133.71c-9.8-0.21-10,9.2-10.12,14.81L0,172.58c-0.01,0.63,0.49,1.16,1.12,1.17
			c0.63,0.01,1.16-0.49,1.17-1.12l0.51-24.06c0.18-8.44,1.43-12.71,7.78-12.57c2.22,0.05,3.85,0.65,4.85,1.8
			c1.41,1.63,1.15,3.91,1.15,3.93l-0.01,0.12l-0.87,40.99c-0.1,4.82-1.95,7.22-5.5,7.15c-3.65-0.08-4.5-3.54-4.63-4.16l0.59-27.9
			c0.16-7.73,0.68-9.67,4.28-9.59c1.04,0.02,1.81,0.33,2.36,0.94c1.15,1.28,0.98,3.49,0.98,3.52l-0.46,21.84
			c-0.01,0.63,0.49,1.16,1.12,1.17c0.63,0.02,1.16-0.49,1.17-1.12l0.46-21.77c0.01-0.05,0.26-3.13-1.56-5.16
			c-0.98-1.1-2.34-1.67-4.03-1.71c-6.37-0.14-6.48,5.15-6.62,11.84L3.3,186.1c0.32,2.1,2.17,6.09,6.86,6.19
			c4.85,0.1,7.71-3.32,7.84-9.38l0.86-40.94c0.05-0.51,0.25-3.39-1.68-5.63C15.74,134.65,13.54,133.77,10.63,133.71z"/>
		<path id="clip_7_" class="st8" d="M120.17,134.55c-2.73-9.42-11.76-6.81-17.16-5.25l-23.12,6.69c-0.61,0.18-0.96,0.81-0.78,1.42
			c0.18,0.61,0.81,0.96,1.42,0.78l23.12-6.69c8.11-2.34,12.56-2.42,14.32,3.68c0.62,2.14,0.53,3.87-0.28,5.17
			c-1.14,1.83-3.39,2.27-3.41,2.27l-0.12,0.02l-39.39,11.39c-4.63,1.34-7.48,0.29-8.46-3.12c-1.01-3.51,2.04-5.36,2.59-5.66
			l26.8-7.75c7.43-2.15,9.43-2.23,10.43,1.23c0.29,1,0.23,1.83-0.19,2.54c-0.88,1.48-3.04,1.98-3.06,1.99l-20.99,6.07
			c-0.61,0.18-0.96,0.81-0.78,1.42c0.18,0.61,0.81,0.96,1.42,0.78l20.92-6.05c0.05-0.01,3.07-0.69,4.46-3.03
			c0.75-1.27,0.9-2.73,0.43-4.35c-1.77-6.12-6.84-4.65-13.27-2.79l-27.1,7.86c-1.91,0.93-5.17,3.88-3.86,8.39
			c1.35,4.67,5.46,6.37,11.3,4.69l39.34-11.38c0.5-0.1,3.3-0.77,4.87-3.28C120.79,139.71,120.98,137.34,120.17,134.55z"/>
	</g>
	<g id="clips_3_" class="st34">
		<path id="clip_6_" class="st8" d="M18.26,95.79c-4.92,8.48,3.21,13.2,8.07,16.02l20.81,12.09c0.55,0.32,1.25,0.13,1.56-0.42
			c0.32-0.55,0.13-1.25-0.41-1.57l-20.81-12.09c-7.3-4.24-10.43-7.4-7.24-12.89c1.11-1.92,2.44-3.06,3.93-3.37
			c2.11-0.45,3.98,0.88,4,0.89l0.1,0.07l35.46,20.59c4.17,2.42,5.38,5.2,3.59,8.27c-1.83,3.16-5.28,2.23-5.88,2.04l-24.13-14.01
			c-6.68-3.88-8.13-5.27-6.32-8.38c0.52-0.9,1.16-1.43,1.96-1.61c1.68-0.39,3.53,0.83,3.55,0.84l18.89,10.97
			c0.55,0.32,1.25,0.13,1.56-0.42c0.32-0.55,0.13-1.25-0.42-1.57l-18.83-10.93c-0.04-0.03-2.61-1.74-5.27-1.13
			c-1.43,0.33-2.59,1.24-3.44,2.7c-3.2,5.51,1.37,8.16,7.16,11.52l24.41,14.15c1.99,0.73,6.38,1.05,8.73-3.01
			c2.44-4.2,0.83-8.36-4.42-11.4L29.46,92.57c-0.42-0.29-2.84-1.85-5.74-1.26C21.56,91.77,19.72,93.27,18.26,95.79z"/>
		<path id="clip_4_" class="st8" d="M71.99,0.33c-9.56-2.17-11.65,7-12.89,12.48l-5.33,23.47c-0.14,0.62,0.25,1.23,0.87,1.37
			c0.62,0.14,1.23-0.24,1.37-0.86l5.33-23.47c1.88-8.23,3.96-12.16,10.15-10.75c2.17,0.49,3.64,1.41,4.39,2.74
			c1.05,1.88,0.35,4.06,0.34,4.09L76.17,9.5l-9.08,39.98c-1.07,4.7-3.37,6.68-6.82,5.89c-3.56-0.81-3.7-4.38-3.7-5.01l6.18-27.21
			c1.71-7.54,2.61-9.33,6.12-8.53c1.02,0.23,1.71,0.69,2.13,1.39c0.87,1.49,0.26,3.62,0.26,3.64l-4.84,21.31
			c-0.14,0.62,0.25,1.23,0.86,1.37c0.62,0.14,1.23-0.24,1.37-0.86l4.83-21.23c0.02-0.05,0.88-3.01-0.49-5.37
			c-0.74-1.27-1.96-2.11-3.6-2.48c-6.21-1.41-7.38,3.74-8.86,10.26l-6.23,27.52c-0.11,2.12,0.9,6.4,5.47,7.44
			c4.74,1.08,8.22-1.7,9.57-7.62l9.07-39.94c0.15-0.49,0.92-3.27-0.51-5.85C76.81,2.28,74.83,0.97,71.99,0.33z"/>
	</g>
	<g id="clips_1_">
		<path id="clip_1_" class="st35" d="M14.63,133.71c-9.8-0.21-10,9.2-10.12,14.81L4,172.58c-0.01,0.63,0.49,1.16,1.12,1.17
			c0.63,0.01,1.16-0.49,1.17-1.12l0.51-24.06c0.18-8.44,1.43-12.71,7.78-12.57c2.22,0.05,3.85,0.65,4.85,1.8
			c1.41,1.63,1.15,3.91,1.15,3.93l-0.01,0.12l-0.87,40.99c-0.1,4.82-1.95,7.22-5.5,7.15c-3.65-0.08-4.5-3.54-4.63-4.16l0.59-27.9
			c0.16-7.73,0.68-9.67,4.28-9.59c1.04,0.02,1.81,0.33,2.36,0.94c1.15,1.28,0.98,3.49,0.98,3.52l-0.46,21.84
			c-0.01,0.63,0.49,1.16,1.12,1.17c0.63,0.02,1.16-0.49,1.17-1.12l0.46-21.77c0.01-0.05,0.26-3.13-1.56-5.16
			c-0.98-1.1-2.34-1.67-4.03-1.71c-6.37-0.14-6.48,5.15-6.62,11.84L7.3,186.1c0.32,2.1,2.17,6.09,6.86,6.19
			c4.85,0.1,7.71-3.32,7.84-9.38l0.86-40.94c0.05-0.51,0.25-3.39-1.68-5.63C19.74,134.65,17.54,133.77,14.63,133.71z"/>
		<path id="clip_5_" class="st36" d="M124.17,134.55c-2.73-9.42-11.76-6.81-17.16-5.25l-23.12,6.69c-0.61,0.18-0.96,0.81-0.78,1.42
			c0.18,0.61,0.81,0.96,1.42,0.78l23.12-6.69c8.11-2.34,12.56-2.42,14.32,3.68c0.62,2.14,0.53,3.87-0.28,5.17
			c-1.14,1.83-3.39,2.27-3.41,2.27l-0.12,0.02l-39.39,11.39c-4.63,1.34-7.48,0.29-8.46-3.12c-1.01-3.51,2.04-5.36,2.59-5.66
			l26.8-7.75c7.43-2.15,9.43-2.23,10.43,1.23c0.29,1,0.23,1.83-0.19,2.54c-0.88,1.48-3.04,1.98-3.06,1.99l-20.99,6.07
			c-0.61,0.18-0.96,0.81-0.78,1.42c0.18,0.61,0.81,0.96,1.42,0.78l20.92-6.05c0.05-0.01,3.07-0.69,4.46-3.03
			c0.75-1.27,0.9-2.73,0.43-4.35c-1.77-6.12-6.84-4.65-13.27-2.79l-27.1,7.86c-1.91,0.93-5.17,3.88-3.86,8.39
			c1.35,4.67,5.46,6.37,11.3,4.69l39.34-11.38c0.5-0.1,3.3-0.77,4.87-3.28C124.79,139.71,124.98,137.34,124.17,134.55z"/>
	</g>
	<g id="clips_2_">
		<path id="clip_3_" class="st35" d="M22.26,95.79c-4.92,8.48,3.21,13.2,8.07,16.02l20.81,12.09c0.55,0.32,1.25,0.13,1.56-0.42
			c0.32-0.55,0.13-1.25-0.41-1.57l-20.81-12.09c-7.3-4.24-10.43-7.4-7.24-12.89c1.11-1.92,2.44-3.06,3.93-3.37
			c2.11-0.45,3.98,0.88,4,0.89l0.1,0.07l35.46,20.59c4.17,2.42,5.38,5.2,3.59,8.27c-1.83,3.16-5.28,2.23-5.88,2.04l-24.13-14.01
			c-6.68-3.88-8.13-5.27-6.32-8.38c0.52-0.9,1.16-1.43,1.96-1.61c1.68-0.39,3.53,0.83,3.55,0.84l18.89,10.97
			c0.55,0.32,1.25,0.13,1.56-0.42c0.32-0.55,0.13-1.25-0.42-1.57l-18.83-10.93c-0.04-0.03-2.61-1.74-5.27-1.13
			c-1.43,0.33-2.59,1.24-3.44,2.7c-3.2,5.51,1.37,8.16,7.16,11.52l24.41,14.15c1.99,0.73,6.38,1.05,8.73-3.01
			c2.44-4.2,0.83-8.36-4.42-11.4L33.46,92.57c-0.42-0.29-2.84-1.85-5.74-1.26C25.56,91.77,23.72,93.27,22.26,95.79z"/>
		<path id="clip_2_" class="st37" d="M75.99,0.33c-9.56-2.17-11.65,7-12.89,12.48l-5.33,23.47c-0.14,0.62,0.25,1.23,0.87,1.37
			c0.62,0.14,1.23-0.24,1.37-0.86l5.33-23.47c1.88-8.23,3.96-12.16,10.15-10.75c2.17,0.49,3.64,1.41,4.39,2.74
			c1.05,1.88,0.35,4.06,0.34,4.09L80.17,9.5l-9.08,39.98c-1.07,4.7-3.37,6.68-6.82,5.89c-3.56-0.81-3.7-4.38-3.7-5.01l6.18-27.21
			c1.71-7.54,2.61-9.33,6.12-8.53c1.02,0.23,1.71,0.69,2.13,1.39c0.87,1.49,0.26,3.62,0.26,3.64l-4.84,21.31
			c-0.14,0.62,0.25,1.23,0.86,1.37c0.62,0.14,1.23-0.24,1.37-0.86l4.83-21.23c0.02-0.05,0.88-3.01-0.49-5.37
			c-0.74-1.27-1.96-2.11-3.6-2.48c-6.21-1.41-7.38,3.74-8.86,10.26l-6.23,27.52c-0.11,2.12,0.9,6.4,5.47,7.44
			c4.74,1.08,8.22-1.7,9.57-7.62l9.07-39.94c0.15-0.49,0.92-3.27-0.51-5.85C80.81,2.28,78.83,0.97,75.99,0.33z"/>
	</g>
</g>
</svg>
