<?xml version="1.0" encoding="utf-8"?>
<!-- Generator: Adobe Illustrator 24.1.1, SVG Export Plug-In . SVG Version: 6.00 Build 0)  -->
<svg version="1.1" id="Layer_1" xmlns="http://www.w3.org/2000/svg" xmlns:xlink="http://www.w3.org/1999/xlink" x="0px" y="0px"
	 viewBox="0 0 36.73 650.19" style="enable-background:new 0 0 36.73 650.19;" xml:space="preserve">
<style type="text/css">
	.st0{opacity:0.4;fill:#1D1D1B;}
	.st1{fill:#7AC0C7;}
	.st2{fill:#E5D867;}
	.st3{fill:#515151;}
	.st4{fill:none;}
	.st5{fill:#FFD31A;}
	.st6{fill:#F29120;}
	.st7{opacity:0.2;fill:#1D1D1B;}
	.st8{fill:#1D1D1B;}
	.st9{fill:#0A54E7;}
	.st10{fill:#FFFFFF;}
	.st11{fill:#4C6AB0;}
	.st12{fill:#FFFDF9;}
	.st13{fill:#43B0E5;}
	.st14{fill:#F1F1F1;}
	.st15{fill:none;stroke:#231F20;stroke-width:10;stroke-linejoin:round;}
	.st16{fill:none;stroke:#231F20;stroke-width:10;stroke-linejoin:round;stroke-dasharray:30.5926,30.5926;}
	.st17{fill:#E57F62;}
	.st18{fill:#E64750;}
	.st19{fill:#CB6C51;}
	.st20{fill:#C5363E;}
	.st21{fill:#EC8C77;}
	.st22{fill:#B75E43;}
	.st23{fill:#FFBA56;}
	.st24{fill:#EEA73D;}
	.st25{fill:#FFC867;}
	.st26{fill:#F2A895;}
	.st27{fill:#FFB8A7;}
	.st28{fill:#DC8B7A;}
	.st29{fill:none;stroke:#1F191A;stroke-width:2.6832;stroke-linecap:round;stroke-linejoin:round;stroke-miterlimit:10;}
	.st30{fill:#1F191A;stroke:#1F191A;stroke-width:2.6832;stroke-linecap:round;stroke-linejoin:round;stroke-miterlimit:10;}
	.st31{fill:#00B08F;}
	.st32{fill:#008262;}
	.st33{fill:#13C6AB;}
	.st34{opacity:0.4;}
	.st35{fill:#EB4036;}
	.st36{fill:#00FF00;}
	.st37{fill:#0055FF;}
	.st38{fill:#FBFFF9;}
	.st39{fill:#3B4D57;}
	.st40{fill:#2C3A41;}
	.st41{fill:#52B770;}
	.st42{fill:#6BBF85;}
	.st43{fill:#8BCB9B;}
	.st44{fill:#AED8BE;}
	.st45{fill:#F1806E;}
	.st46{fill:#DA7464;}
	.st47{fill:#D5CDB8;}
	.st48{fill:#F7A519;}
	.st49{fill:#DF9618;}
	.st50{fill:#FFD464;}
	.st51{fill:#E4C05C;}
	.st52{fill:#C1C3C8;}
	.st53{fill:#DCDCDC;stroke:#070707;stroke-width:2;stroke-miterlimit:10;}
</style>
<g>
	<path class="st0" d="M19.61,646.59l15.41-64.72l1.59-524.94l0,0l0.04-13.13l0.02-5.47l0,0l0.01-1.69l-0.01,0l0.04-13.47l0,0
		l0.01-5.13l-0.49,0l0.01-5.13c0.03-7.11-5.71-12.88-12.81-12.9L20,0c-7.1-0.02-12.88,5.73-12.9,12.82l-0.02,5.14l-0.79,0
		l-0.02,5.13l0,0l-0.01,3.6l-0.03,0l0,1.7l0.03,0L6.22,46.15l-0.03,0l0,1.69l0.03,0L4.59,581.78l10.11,43.62l0,0L19.61,646.59z"/>
	<g id="pencil_1_">
		<g id="XMLID_24_">
			<g>
				<path class="st45" d="M2.47,34.79l0.05-18.37c0.02-7.1,5.8-12.84,12.9-12.82l3.44,0.02c7.1,0.02,12.84,5.79,12.81,12.9
					l-0.05,18.37c-0.02,7.1-5.79,12.84-12.9,12.82l-3.44-0.01C8.18,47.67,2.45,41.9,2.47,34.79z"/>
			</g>
		</g>
		<g id="XMLID_23_">
			<g>
				<path class="st46" d="M18.72,47.7l-3.44-0.01c-7.1-0.02-12.84-5.79-12.82-12.9l0.05-18.37c0.02-7.1,5.8-12.84,12.9-12.82
					l3.44,0.02L18.72,47.7z"/>
			</g>
		</g>
		<g id="XMLID_22_">
			<g>
				<polygon class="st47" points="30.43,585.47 15.02,650.19 0,585.38 				"/>
			</g>
		</g>
		<g id="XMLID_21_">
			<g>
				<polygon class="st39" points="10.11,629.01 20.06,629.04 15.02,650.19 				"/>
			</g>
		</g>
		<g id="XMLID_18_">
			<g id="XMLID_20_">
				<g>
					
						<rect x="-255.68" y="298.49" transform="matrix(3.035740e-03 -1 1 3.035740e-03 -282.5034 328.841)" class="st48" width="558.7" height="15.22"/>
				</g>
			</g>
			<g id="XMLID_19_">
				<g>
					
						<rect x="-270.9" y="298.45" transform="matrix(3.180691e-03 -1 1 3.180691e-03 -297.6267 313.5373)" class="st49" width="558.7" height="15.21"/>
				</g>
			</g>
		</g>
		<g id="XMLID_14_">
			<g>
				
					<rect x="-2.58" y="25.83" transform="matrix(2.993419e-03 -1 1 2.993419e-03 -24.2255 57.7897)" class="st50" width="38.89" height="30.43"/>
			</g>
			<g id="XMLID_17_">
				<g>
					
						<rect x="16.03" y="25.83" transform="matrix(2.993419e-03 -1 1 2.993419e-03 -24.22 57.7884)" class="st51" width="1.69" height="30.43"/>
				</g>
			</g>
			<g id="XMLID_16_">
				<g>
					
						<rect x="15.96" y="35.43" transform="matrix(2.320813e-03 -1 1 2.320813e-03 -33.8712 67.3321)" class="st51" width="1.69" height="30.43"/>
				</g>
			</g>
			<g id="XMLID_15_">
				<g>
					
						<rect x="16.02" y="15.96" transform="matrix(1.482596e-03 -1 1 1.482596e-03 -14.3361 48.0045)" class="st51" width="1.7" height="30.44"/>
				</g>
			</g>
		</g>
	</g>
</g>
</svg>
