<?xml version="1.0" encoding="utf-8"?>
<!-- Generator: Adobe Illustrator 24.1.1, SVG Export Plug-In . SVG Version: 6.00 Build 0)  -->
<svg version="1.1" id="Layer_1" xmlns="http://www.w3.org/2000/svg" xmlns:xlink="http://www.w3.org/1999/xlink" x="0px" y="0px"
	 viewBox="0 0 59.18 679.4" style="enable-background:new 0 0 59.18 679.4;" xml:space="preserve">
<style type="text/css">
	.st0{opacity:0.4;fill:#1D1D1B;}
	.st1{fill:#7AC0C7;}
	.st2{fill:#E5D867;}
	.st3{fill:#515151;}
	.st4{fill:none;}
	.st5{fill:#FFD31A;}
	.st6{fill:#F29120;}
	.st7{opacity:0.2;fill:#1D1D1B;}
	.st8{fill:#1D1D1B;}
	.st9{fill:#0A54E7;}
	.st10{fill:#FFFFFF;}
	.st11{fill:#4C6AB0;}
	.st12{fill:#FFFDF9;}
	.st13{fill:#43B0E5;}
	.st14{fill:#F1F1F1;}
	.st15{fill:none;stroke:#231F20;stroke-width:10;stroke-linejoin:round;}
	.st16{fill:none;stroke:#231F20;stroke-width:10;stroke-linejoin:round;stroke-dasharray:30.5926,30.5926;}
	.st17{fill:#E57F62;}
	.st18{fill:#E64750;}
	.st19{fill:#CB6C51;}
	.st20{fill:#C5363E;}
	.st21{fill:#EC8C77;}
	.st22{fill:#B75E43;}
	.st23{fill:#FFBA56;}
	.st24{fill:#EEA73D;}
	.st25{fill:#FFC867;}
	.st26{fill:#F2A895;}
	.st27{fill:#FFB8A7;}
	.st28{fill:#DC8B7A;}
	.st29{fill:none;stroke:#1F191A;stroke-width:2.6832;stroke-linecap:round;stroke-linejoin:round;stroke-miterlimit:10;}
	.st30{fill:#1F191A;stroke:#1F191A;stroke-width:2.6832;stroke-linecap:round;stroke-linejoin:round;stroke-miterlimit:10;}
	.st31{fill:#00B08F;}
	.st32{fill:#008262;}
	.st33{fill:#13C6AB;}
	.st34{opacity:0.4;}
	.st35{fill:#EB4036;}
	.st36{fill:#00FF00;}
	.st37{fill:#0055FF;}
	.st38{fill:#FBFFF9;}
	.st39{fill:#3B4D57;}
	.st40{fill:#2C3A41;}
	.st41{fill:#52B770;}
	.st42{fill:#6BBF85;}
	.st43{fill:#8BCB9B;}
	.st44{fill:#AED8BE;}
	.st45{fill:#F1806E;}
	.st46{fill:#DA7464;}
	.st47{fill:#D5CDB8;}
	.st48{fill:#F7A519;}
	.st49{fill:#DF9618;}
	.st50{fill:#FFD464;}
	.st51{fill:#E4C05C;}
	.st52{fill:#C1C3C8;}
	.st53{fill:#DCDCDC;stroke:#070707;stroke-width:2;stroke-miterlimit:10;}
</style>
<g>
	<path class="st0" d="M34.94,17.97c-2.63-6.76-12.15-6.78-14.81-0.04C12.02,38.47,0.18,80.15,0,148.55l7.59,0.02L6.42,614.7
		l3.08,32.22l6.06,0.02l0.9,20.91l1.23,0l-0.03,9.89c0,0.91,0.74,1.64,1.64,1.65l2.99,0c0.91,0,1.64-0.72,1.65-1.63l0.04-9.89
		l1.21,0l1.01-20.92l6.06,0.02l3.25-32.21l1.17-466.12l6.92,0.02c-0.13,52.8,1.62,80.29,3.33,94.48c0.35,2.98,4.69,2.96,4.98-0.02
		c3.6-36.33,2.51-94.42,2.51-94.42C54.57,80.28,42.93,38.56,34.94,17.97z"/>
	<g>
		<polygon class="st4" points="31.82,135.73 32.07,135.74 41.29,135.75 32.07,135.73 		"/>
		<path class="st5" d="M22.27,664.86c0,0.91,0.74,1.64,1.64,1.65l2.99,0c0.91,0,1.64-0.72,1.65-1.63l0.04-9.89l-6.28-0.02
			L22.27,664.86z"/>
		<polygon class="st6" points="33.12,586.35 30.94,586.33 20.28,586.31 18.1,586.31 18.78,601.82 20.18,634.05 21.08,654.97 
			22.31,654.97 28.59,654.99 29.8,654.99 30.8,634.07 32.38,601.86 		"/>
		<polygon class="st7" points="28.59,654.99 22.31,654.97 22.29,659.27 28.57,659.32 		"/>
		<polygon class="st7" points="30.8,634.07 20.18,634.05 20.4,639.08 30.56,639.08 		"/>
		<line class="st8" x1="20.28" y1="586.31" x2="18.1" y2="586.31"/>
		<path class="st9" d="M39.56,5.08C36.93-1.67,27.41-1.7,24.75,5.04C16.65,25.58,4.8,67.26,4.62,135.66l7.59,0.02l9.22,0.03
			l10.39,0.02l0.25-0.01l9.22,0.03l6.92,0.02c-0.13,52.8,1.62,80.29,3.33,94.48c0.35,2.98,4.69,2.96,4.98-0.02
			c3.6-36.33,2.51-94.42,2.51-94.42C59.2,67.39,47.56,25.66,39.56,5.08z"/>
		<polygon class="st10" points="31.77,256.78 32.07,135.74 31.82,135.73 21.43,135.71 21.12,256.75 		"/>
		<polygon class="st11" points="20.28,586.31 30.94,586.33 31.77,256.78 21.12,256.75 		"/>
		<polyline class="st12" points="30.8,634.07 36.87,634.09 40.12,601.87 41.29,135.75 32.07,135.74 31.77,256.78 30.94,586.33 
			33.12,586.35 32.38,601.86 		"/>
		<polyline class="st12" points="18.78,601.82 18.1,586.31 20.28,586.31 21.12,256.75 21.43,135.71 12.21,135.69 11.04,601.81 
			14.12,634.03 20.18,634.05 		"/>
		<polygon class="st7" points="41.29,135.75 32.07,135.74 31.82,135.73 21.43,135.71 12.21,135.69 12.17,152.2 41.25,152.16 		"/>
	</g>
</g>
</svg>
