<?xml version="1.0" encoding="utf-8"?>
<!-- Generator: Adobe Illustrator 24.1.1, SVG Export Plug-In . SVG Version: 6.00 Build 0)  -->
<svg version="1.1" id="Layer_1" xmlns="http://www.w3.org/2000/svg" xmlns:xlink="http://www.w3.org/1999/xlink" x="0px" y="0px"
	 viewBox="0 0 325.34 315.04" style="enable-background:new 0 0 325.34 315.04;" xml:space="preserve">
<style type="text/css">
	.st0{opacity:0.4;fill:#1D1D1B;}
	.st1{fill:#7AC0C7;}
	.st2{fill:#E5D867;}
	.st3{fill:#515151;}
	.st4{fill:none;}
	.st5{fill:#FFD31A;}
	.st6{fill:#F29120;}
	.st7{opacity:0.2;fill:#1D1D1B;}
	.st8{fill:#1D1D1B;}
	.st9{fill:#0A54E7;}
	.st10{fill:#FFFFFF;}
	.st11{fill:#4C6AB0;}
	.st12{fill:#FFFDF9;}
	.st13{fill:#43B0E5;}
	.st14{fill:#F1F1F1;}
	.st15{fill:none;stroke:#231F20;stroke-width:10;stroke-linejoin:round;}
	.st16{fill:none;stroke:#231F20;stroke-width:10;stroke-linejoin:round;stroke-dasharray:30.5926,30.5926;}
	.st17{fill:#E57F62;}
	.st18{fill:#E64750;}
	.st19{fill:#CB6C51;}
	.st20{fill:#C5363E;}
	.st21{fill:#EC8C77;}
	.st22{fill:#B75E43;}
	.st23{fill:#FFBA56;}
	.st24{fill:#EEA73D;}
	.st25{fill:#FFC867;}
	.st26{fill:#F2A895;}
	.st27{fill:#FFB8A7;}
	.st28{fill:#DC8B7A;}
	.st29{fill:none;stroke:#1F191A;stroke-width:2.6832;stroke-linecap:round;stroke-linejoin:round;stroke-miterlimit:10;}
	.st30{fill:#1F191A;stroke:#1F191A;stroke-width:2.6832;stroke-linecap:round;stroke-linejoin:round;stroke-miterlimit:10;}
	.st31{fill:#00B08F;}
	.st32{fill:#008262;}
	.st33{fill:#13C6AB;}
	.st34{opacity:0.4;}
	.st35{fill:#EB4036;}
	.st36{fill:#00FF00;}
	.st37{fill:#0055FF;}
	.st38{fill:#FBFFF9;}
	.st39{fill:#3B4D57;}
	.st40{fill:#2C3A41;}
	.st41{fill:#52B770;}
	.st42{fill:#6BBF85;}
	.st43{fill:#8BCB9B;}
	.st44{fill:#AED8BE;}
	.st45{fill:#F1806E;}
	.st46{fill:#DA7464;}
	.st47{fill:#D5CDB8;}
	.st48{fill:#F7A519;}
	.st49{fill:#DF9618;}
	.st50{fill:#FFD464;}
	.st51{fill:#E4C05C;}
	.st52{fill:#C1C3C8;}
	.st53{fill:#DCDCDC;stroke:#070707;stroke-width:2;stroke-miterlimit:10;}
</style>
<g>
	<path class="st0" d="M312.6,133.94C299.77,48.1,219.78-11.08,133.94,1.75C48.11,14.58-11.08,94.56,1.75,180.4
		c12.83,85.84,92.82,145.02,178.65,132.19C266.24,299.76,325.43,219.78,312.6,133.94z"/>
	<g id="plant">
		<g id="coffee_1_">
			<path class="st38" d="M323.6,134.64C310.77,48.81,230.78-10.38,144.94,2.45C59.11,15.28-0.08,95.26,12.75,181.1
				s92.82,145.02,178.65,132.19C277.24,300.47,336.43,220.48,323.6,134.64z"/>
			<path class="st39" d="M287.47,140.04c-9.85-65.88-71.24-111.31-137.13-101.47C84.46,48.42,39.03,109.82,48.87,175.7
				c9.85,65.88,71.24,111.31,137.13,101.47C251.89,267.32,297.32,205.93,287.47,140.04z"/>
		</g>
		<path class="st40" d="M150.08,36.79C84.19,46.64,38.76,108.04,48.61,173.92c9.85,65.88,71.24,111.31,137.13,101.47L150.08,36.79z"
			/>
		<g>
			<path class="st41" d="M111.59,127.07c30.49,1.07,57.24,11.03,56.36,35.91c-0.87,24.87-28.44,38.43-58.93,37.36
				c-30.49-1.07-91.36-39.89-91.36-39.89S81.1,126,111.59,127.07z"/>
			<path class="st42" d="M167.94,162.97c-0.87,24.87-28.44,38.43-58.93,37.36c-30.49-1.07-91.36-39.89-91.36-39.89L167.94,162.97z"
				/>
		</g>
		<g>
			<path class="st42" d="M233.35,148.29c-25.5,16.75-53.09,24.06-66.74,3.25c-13.66-20.8,1.01-47.8,26.51-64.54
				c25.5-16.74,97.61-20.23,97.61-20.23S258.85,131.54,233.35,148.29z"/>
			<path class="st41" d="M166.6,151.54c-13.66-20.8,1.01-47.8,26.51-64.54c25.5-16.74,97.61-20.23,97.61-20.23L166.6,151.54z"/>
		</g>
		<g>
			<path class="st42" d="M192.78,93.66c4.39,30.19-0.64,58.28-25.27,61.86c-24.63,3.58-42.89-21.12-47.28-51.31
				C115.85,74.02,143.16,7.2,143.16,7.2S188.39,63.47,192.78,93.66z"/>
			<path class="st41" d="M167.52,155.53c-24.63,3.58-42.89-21.12-47.28-51.31C115.85,74.02,143.16,7.2,143.16,7.2L167.52,155.53z"/>
		</g>
		<g>
			<path class="st41" d="M185.89,226.12c-23.41-19.57-38.39-43.86-22.42-62.95c15.97-19.09,46.05-12.86,69.45,6.71
				c23.4,19.57,47.6,87.59,47.6,87.59S209.29,245.69,185.89,226.12z"/>
			<path class="st42" d="M280.51,257.47c0,0-71.22-11.78-94.63-31.35c-23.41-19.57-38.39-43.86-22.42-62.95L280.51,257.47z"/>
		</g>
		<g>
			<path class="st43" d="M202.68,189.34c-21.97-0.58-35.54-11.33-34.97-33.29c0.57-21.97,14.69-31.99,36.66-31.42
				c21.97,0.58,65.91,34.1,65.91,34.1S224.65,189.91,202.68,189.34z"/>
			<path class="st44" d="M167.71,156.05c0.57-21.97,14.69-31.99,36.66-31.42c21.97,0.58,65.91,34.1,65.91,34.1L167.71,156.05z"/>
		</g>
		<g>
			<path class="st41" d="M119.03,196.71c10.81-28.53,28.83-50.65,52.11-41.84c23.28,8.82,27.26,39.28,16.45,67.81
				c-10.81,28.53-67.12,73.71-67.12,73.71S108.22,225.24,119.03,196.71z"/>
			<path class="st42" d="M120.47,296.39c0,0-12.25-71.14-1.44-99.67c10.81-28.53,28.83-50.65,52.11-41.84L120.47,296.39z"/>
		</g>
		<path class="st44" d="M188.68,203.89c10.9-19.08,8.75-36.26-10.32-47.17c-19.08-10.9-34.98-4.03-45.88,15.04
			c-10.9,19.08-5.03,74.03-5.03,74.03S177.77,222.97,188.68,203.89z"/>
		<path class="st43" d="M178.36,156.72c-19.08-10.9-34.98-4.03-45.88,15.04c-10.9,19.08-5.03,74.03-5.03,74.03L178.36,156.72z"/>
		<g>
			<path class="st44" d="M130.59,162.52c18.02,12.58,35.33,11.99,47.91-6.03c12.58-18.02,7.17-34.47-10.85-47.05
				c-18.02-12.58-73.27-11.68-73.27-11.68S112.57,149.93,130.59,162.52z"/>
			<path class="st43" d="M178.5,156.49c12.58-18.02,7.17-34.47-10.85-47.05c-18.02-12.58-73.27-11.68-73.27-11.68L178.5,156.49z"/>
		</g>
	</g>
</g>
</svg>
