<?xml version="1.0" encoding="utf-8"?>
<!-- Generator: Adobe Illustrator 24.1.1, SVG Export Plug-In . SVG Version: 6.00 Build 0)  -->
<svg version="1.1" id="Layer_1" xmlns="http://www.w3.org/2000/svg" xmlns:xlink="http://www.w3.org/1999/xlink" x="0px" y="0px"
	 viewBox="0 0 50.06 626.72" style="enable-background:new 0 0 50.06 626.72;" xml:space="preserve">
<style type="text/css">
	.st0{opacity:0.4;fill:#1D1D1B;}
	.st1{fill:#7AC0C7;}
	.st2{fill:#E5D867;}
	.st3{fill:#515151;}
	.st4{fill:none;}
	.st5{fill:#FFD31A;}
	.st6{fill:#F29120;}
	.st7{opacity:0.2;fill:#1D1D1B;}
	.st8{fill:#1D1D1B;}
	.st9{fill:#0A54E7;}
	.st10{fill:#FFFFFF;}
	.st11{fill:#4C6AB0;}
	.st12{fill:#FFFDF9;}
	.st13{fill:#43B0E5;}
	.st14{fill:#F1F1F1;}
	.st15{fill:none;stroke:#231F20;stroke-width:10;stroke-linejoin:round;}
	.st16{fill:none;stroke:#231F20;stroke-width:10;stroke-linejoin:round;stroke-dasharray:30.5926,30.5926;}
	.st17{fill:#E57F62;}
	.st18{fill:#E64750;}
	.st19{fill:#CB6C51;}
	.st20{fill:#C5363E;}
	.st21{fill:#EC8C77;}
	.st22{fill:#B75E43;}
	.st23{fill:#FFBA56;}
	.st24{fill:#EEA73D;}
	.st25{fill:#FFC867;}
	.st26{fill:#F2A895;}
	.st27{fill:#FFB8A7;}
	.st28{fill:#DC8B7A;}
	.st29{fill:none;stroke:#1F191A;stroke-width:2.6832;stroke-linecap:round;stroke-linejoin:round;stroke-miterlimit:10;}
	.st30{fill:#1F191A;stroke:#1F191A;stroke-width:2.6832;stroke-linecap:round;stroke-linejoin:round;stroke-miterlimit:10;}
	.st31{fill:#00B08F;}
	.st32{fill:#008262;}
	.st33{fill:#13C6AB;}
	.st34{opacity:0.4;}
	.st35{fill:#EB4036;}
	.st36{fill:#00FF00;}
	.st37{fill:#0055FF;}
	.st38{fill:#FBFFF9;}
	.st39{fill:#3B4D57;}
	.st40{fill:#2C3A41;}
	.st41{fill:#52B770;}
	.st42{fill:#6BBF85;}
	.st43{fill:#8BCB9B;}
	.st44{fill:#AED8BE;}
	.st45{fill:#F1806E;}
	.st46{fill:#DA7464;}
	.st47{fill:#D5CDB8;}
	.st48{fill:#F7A519;}
	.st49{fill:#DF9618;}
	.st50{fill:#FFD464;}
	.st51{fill:#E4C05C;}
	.st52{fill:#C1C3C8;}
	.st53{fill:#DCDCDC;stroke:#070707;stroke-width:2;stroke-miterlimit:10;}
</style>
<g>
	<path class="st0" d="M46.69,568.87l3.36-543.68l-5.35-0.03l0.1-17.78c0.02-4.02-3.22-7.3-7.25-7.33L27.53,0
		c-4.02-0.02-7.3,3.22-7.32,7.25l-0.1,17.77l-7.75-0.03l-0.98,0l-5.24-0.03c-1.6,0-2.9,1.28-2.91,2.89L2.13,222.86
		c-0.02,3.45,2.76,6.25,6.21,6.27c1.59,0.01,2.88-1.27,2.89-2.86l0.71-126.56l2.67,0.01l-3.04,468.94l0.16,0l0,0
		c0,0,5.19,31.99,14.64,47.79l6.24,0.03C42.87,600.58,46.69,568.87,46.69,568.87z"/>
	<g id="pen_1_">
		<g id="XMLID_13_">
			<g>
				<path class="st52" d="M20.86,109.99L9.8,109.94L9.1,236.5c-0.01,1.59-1.3,2.86-2.89,2.86l0,0c-3.45-0.02-6.22-2.82-6.21-6.27
					L1.09,38.05C1.1,36.45,2.4,35.16,4,35.17l5.24,0.03l0.98,0l11.05,0.05L20.86,109.99z"/>
			</g>
		</g>
		<g id="XMLID_12_">
			<g>
				<path class="st52" d="M17.73,77.64l0.34-60.17c0.02-4.02,3.3-7.26,7.32-7.25l10.04,0.06c4.02,0.02,7.27,3.31,7.25,7.33
					l-0.33,60.17c-0.02,4.02-3.3,7.27-7.33,7.25l-10.04-0.06C20.95,84.94,17.71,81.66,17.73,77.64z"/>
			</g>
		</g>
		<g id="XMLID_11_">
			<g>
				
					<rect x="-243.09" y="289.67" transform="matrix(6.188248e-03 -1 1 6.188248e-03 -278.572 334.0112)" class="st39" width="543.69" height="34.97"/>
			</g>
		</g>
		<g id="XMLID_10_">
			<g>
				<path class="st52" d="M30.48,626.72l-6.24-0.03c-9.46-15.8-14.64-47.79-14.64-47.79l34.97,0.2
					C44.56,579.09,40.74,610.8,30.48,626.72z"/>
			</g>
		</g>
		<g id="XMLID_7_">
			<g>
				<polygon class="st40" points="12.96,35.22 9.43,578.9 27.08,578.97 30.6,35.3 				"/>
			</g>
		</g>
		<g id="XMLID_6_">
			<g>
				
					<rect x="29.01" y="26.8" transform="matrix(4.105830e-03 -1 1 4.105830e-03 -14.0217 74.4788)" class="st52" width="2.74" height="34.97"/>
			</g>
		</g>
		<g id="XMLID_3_">
			<g>
				
					<rect x="27.43" y="282.48" transform="matrix(4.106896e-03 -1 1 4.106896e-03 -271.2782 327.5292)" class="st52" width="2.74" height="34.97"/>
			</g>
		</g>
	</g>
</g>
</svg>
