<?xml version="1.0" encoding="utf-8"?>
<!-- Generator: Adobe Illustrator 24.1.1, SVG Export Plug-In . SVG Version: 6.00 Build 0)  -->
<svg version="1.1" id="Layer_1" xmlns="http://www.w3.org/2000/svg" xmlns:xlink="http://www.w3.org/1999/xlink" x="0px" y="0px"
	 viewBox="0 0 975 825.13" style="enable-background:new 0 0 975 825.13;" xml:space="preserve">
<style type="text/css">
	.st0{opacity:0.4;fill:#1D1D1B;}
	.st1{fill:#7AC0C7;}
	.st2{fill:#E5D867;}
	.st3{fill:#515151;}
	.st4{fill:none;}
	.st5{fill:#FFD31A;}
	.st6{fill:#F29120;}
	.st7{opacity:0.2;fill:#1D1D1B;}
	.st8{fill:#1D1D1B;}
	.st9{fill:#0A54E7;}
	.st10{fill:#FFFFFF;}
	.st11{fill:#4C6AB0;}
	.st12{fill:#FFFDF9;}
	.st13{fill:#43B0E5;}
	.st14{fill:#F1F1F1;}
	.st15{fill:none;stroke:#231F20;stroke-width:10;stroke-linejoin:round;}
	.st16{fill:none;stroke:#231F20;stroke-width:10;stroke-linejoin:round;stroke-dasharray:30.5926,30.5926;}
	.st17{fill:#E57F62;}
	.st18{fill:#E64750;}
	.st19{fill:#CB6C51;}
	.st20{fill:#C5363E;}
	.st21{fill:#EC8C77;}
	.st22{fill:#B75E43;}
	.st23{fill:#FFBA56;}
	.st24{fill:#EEA73D;}
	.st25{fill:#FFC867;}
	.st26{fill:#F2A895;}
	.st27{fill:#FFB8A7;}
	.st28{fill:#DC8B7A;}
	.st29{fill:none;stroke:#1F191A;stroke-width:2.6832;stroke-linecap:round;stroke-linejoin:round;stroke-miterlimit:10;}
	.st30{fill:#1F191A;stroke:#1F191A;stroke-width:2.6832;stroke-linecap:round;stroke-linejoin:round;stroke-miterlimit:10;}
	.st31{fill:#00B08F;}
	.st32{fill:#008262;}
	.st33{fill:#13C6AB;}
	.st34{opacity:0.4;}
	.st35{fill:#EB4036;}
	.st36{fill:#00FF00;}
	.st37{fill:#0055FF;}
	.st38{fill:#FBFFF9;}
	.st39{fill:#3B4D57;}
	.st40{fill:#2C3A41;}
	.st41{fill:#52B770;}
	.st42{fill:#6BBF85;}
	.st43{fill:#8BCB9B;}
	.st44{fill:#AED8BE;}
	.st45{fill:#F1806E;}
	.st46{fill:#DA7464;}
	.st47{fill:#D5CDB8;}
	.st48{fill:#F7A519;}
	.st49{fill:#DF9618;}
	.st50{fill:#FFD464;}
	.st51{fill:#E4C05C;}
	.st52{fill:#C1C3C8;}
	.st53{fill:#DCDCDC;stroke:#070707;stroke-width:2;stroke-miterlimit:10;}
</style>
<g>
	<path class="st0" d="M924.53,31.99h-50.42V3.6c0-1.98-1.62-3.6-3.62-3.6h-6.17c-2,0-3.61,1.62-3.61,3.6v28.39h-35.23V3.6
		c0-1.98-1.62-3.6-3.61-3.6h-6.19c-1.98,0-3.61,1.62-3.61,3.6v28.39h-35.23V3.6c0-1.98-1.62-3.6-3.6-3.6h-6.19
		c-1.98,0-3.6,1.62-3.6,3.6v28.39h-35.23V3.6c0-1.98-1.6-3.6-3.61-3.6h-6.17c-2,0-3.62,1.62-3.62,3.6v28.39H679.6V3.6
		c0-1.98-1.62-3.6-3.62-3.6h-6.17c-2,0-3.61,1.62-3.61,3.6v28.39h-35.23V3.6c0-1.98-1.62-3.6-3.6-3.6h-6.19
		c-1.98,0-3.61,1.62-3.61,3.6v28.39h-35.23V3.6c0-1.98-1.62-3.6-3.61-3.6h-6.19c-1.98,0-3.61,1.62-3.61,3.6v28.39h-35.23V3.6
		c0-1.98-1.6-3.6-3.61-3.6h-6.17c-2,0-3.62,1.62-3.62,3.6v28.39H485.1V3.6c0-1.98-1.62-3.6-3.62-3.6h-6.17c-2,0-3.6,1.62-3.6,3.6
		v28.39h-35.23V3.6c0-1.98-1.62-3.6-3.6-3.6h-6.19c-1.98,0-3.6,1.62-3.6,3.6v28.39h-35.23V3.6c0-1.98-1.62-3.6-3.61-3.6h-6.19
		c-1.98,0-3.6,1.62-3.6,3.6v28.39H339.2V3.6c0-1.98-1.6-3.6-3.6-3.6h-6.17c-2,0-3.62,1.62-3.62,3.6v28.39h-35.21V3.6
		c0-1.98-1.62-3.6-3.62-3.6h-6.17c-2,0-3.6,1.62-3.6,3.6v28.39h-35.23V3.6c0-1.98-1.62-3.6-3.6-3.6h-6.19c-1.98,0-3.6,1.62-3.6,3.6
		v28.39h-35.23V3.6c0-1.98-1.62-3.6-3.61-3.6h-6.19c-1.98,0-3.61,1.62-3.61,3.6v28.39h-35.23V3.6c0-1.98-1.6-3.6-3.6-3.6h-6.17
		c-2,0-3.62,1.62-3.62,3.6v28.39H96.08V3.6c0-1.98-1.62-3.6-3.62-3.6h-6.17c-2,0-3.6,1.62-3.6,3.6v28.39H32.25
		C14.44,31.99,0,46.43,0,64.24v728.65c0,17.81,14.44,32.24,32.25,32.24h892.28c17.81,0,32.26-14.44,32.26-32.24V64.24
		C956.79,46.43,942.33,31.99,924.53,31.99z"/>
	<g>
		<path class="st13" d="M975,792.89V64.24c0-17.81-14.46-32.25-32.26-32.25h-50.42v35.9h50.32v571.02v150.32H792.33H50.54V67.89
			h50.34v-35.9H50.45c-17.81,0-32.25,14.44-32.25,32.25v728.65c0,17.81,14.44,32.24,32.25,32.24h892.28
			C960.54,825.13,975,810.7,975,792.89z"/>
		<path class="st14" d="M892.32,67.89v22.19c5.28,2.49,8.92,7.88,8.92,14.11c0,8.63-6.99,15.62-15.62,15.62
			c-8.63,0-15.62-6.99-15.62-15.62c0-6.23,3.64-11.62,8.92-14.11V67.89h-35.23v22.19c5.28,2.49,8.92,7.88,8.92,14.11
			c0,8.63-6.99,15.62-15.62,15.62c-8.63,0-15.62-6.99-15.62-15.62c0-6.23,3.64-11.62,8.92-14.11V67.89h-35.23v22.19
			c5.28,2.49,8.92,7.88,8.92,14.11c0,8.63-6.99,15.62-15.62,15.62c-8.63,0-15.62-6.99-15.62-15.62c0-6.23,3.64-11.62,8.92-14.11
			V67.89h-35.23v22.19c5.28,2.49,8.94,7.88,8.94,14.11c0,8.63-7.01,15.62-15.64,15.62c-8.63,0-15.62-6.99-15.62-15.62
			c0-6.23,3.64-11.62,8.92-14.11V67.89h-35.21v22.19c5.28,2.49,8.92,7.88,8.92,14.11c0,8.63-6.99,15.62-15.62,15.62
			c-8.63,0-15.62-6.99-15.62-15.62c0-6.23,3.64-11.62,8.92-14.11V67.89h-35.23v22.19c5.28,2.49,8.92,7.88,8.92,14.11
			c0,8.63-6.99,15.62-15.62,15.62c-8.63,0-15.62-6.99-15.62-15.62c0-6.23,3.64-11.62,8.92-14.11V67.89h-35.23v22.19
			c5.28,2.49,8.92,7.88,8.92,14.11c0,8.63-6.99,15.62-15.62,15.62c-8.63,0-15.62-6.99-15.62-15.62c0-6.23,3.64-11.62,8.92-14.11
			V67.89h-35.23v22.19c5.28,2.49,8.94,7.88,8.94,14.11c0,8.63-7.01,15.62-15.64,15.62c-8.63,0-15.62-6.99-15.62-15.62
			c0-6.23,3.64-11.62,8.92-14.11V67.89H503.3v22.19c5.28,2.49,8.92,7.88,8.92,14.11c0,8.63-6.99,15.62-15.62,15.62
			c-8.63,0-15.62-6.99-15.62-15.62c0-6.23,3.64-11.62,8.92-14.11V67.89h-35.23v22.19c5.28,2.49,8.92,7.88,8.92,14.11
			c0,8.63-6.99,15.62-15.62,15.62c-8.63,0-15.62-6.99-15.62-15.62c0-6.23,3.64-11.62,8.92-14.11V67.89h-35.23v22.19
			c5.28,2.49,8.92,7.88,8.92,14.11c0,8.63-6.99,15.62-15.62,15.62c-8.63,0-15.62-6.99-15.62-15.62c0-6.23,3.64-11.62,8.92-14.11
			V67.89h-35.23v22.19c5.28,2.49,8.94,7.88,8.94,14.11c0,8.63-7.01,15.62-15.64,15.62c-8.63,0-15.62-6.99-15.62-15.62
			c0-6.23,3.64-11.62,8.92-14.11V67.89H308.8v22.19c5.28,2.49,8.92,7.88,8.92,14.11c0,8.63-6.99,15.62-15.62,15.62
			c-8.63,0-15.62-6.99-15.62-15.62c0-6.23,3.64-11.62,8.92-14.11V67.89h-35.23v22.19c5.28,2.49,8.92,7.88,8.92,14.11
			c0,8.63-6.99,15.62-15.62,15.62c-8.63,0-15.62-6.99-15.62-15.62c0-6.23,3.64-11.62,8.92-14.11V67.89h-35.23v22.19
			c5.28,2.49,8.92,7.88,8.92,14.11c0,8.63-6.99,15.62-15.62,15.62c-8.63,0-15.62-6.99-15.62-15.62c0-6.23,3.64-11.62,8.92-14.11
			V67.89H162.9v22.19c5.28,2.49,8.94,7.88,8.94,14.11c0,8.63-7.01,15.62-15.64,15.62c-8.63,0-15.62-6.99-15.62-15.62
			c0-6.23,3.64-11.62,8.92-14.11V67.89h-35.21v22.19c5.28,2.49,8.92,7.88,8.92,14.11c0,8.63-6.99,15.62-15.62,15.62
			c-8.63,0-15.62-6.99-15.62-15.62c0-6.23,3.64-11.62,8.92-14.11V67.89H50.54v721.34h892.1V638.91V67.89H892.32z"/>
		<path class="st11" d="M870,104.2c0,8.63,6.99,15.62,15.62,15.62c8.63,0,15.62-6.99,15.62-15.62c0-6.23-3.64-11.62-8.92-14.11
			v16.97c0,2-1.62,3.62-3.62,3.62h-6.17c-2,0-3.61-1.62-3.61-3.62V90.09C873.64,92.58,870,97.97,870,104.2z"/>
		<path class="st11" d="M821.37,104.2c0,8.63,6.99,15.62,15.62,15.62c8.63,0,15.62-6.99,15.62-15.62c0-6.23-3.64-11.62-8.92-14.11
			v16.97c0,2-1.62,3.62-3.6,3.62h-6.19c-1.98,0-3.6-1.62-3.6-3.62V90.09C825.01,92.58,821.37,97.97,821.37,104.2z"/>
		<path class="st11" d="M772.74,104.2c0,8.63,6.99,15.62,15.62,15.62c8.63,0,15.62-6.99,15.62-15.62c0-6.23-3.64-11.62-8.92-14.11
			v16.97c0,2-1.62,3.62-3.6,3.62h-6.19c-1.98,0-3.61-1.62-3.61-3.62V90.09C776.38,92.58,772.74,97.97,772.74,104.2z"/>
		<path class="st11" d="M724.1,104.2c0,8.63,6.99,15.62,15.62,15.62c8.63,0,15.64-6.99,15.64-15.62c0-6.23-3.66-11.62-8.94-14.11
			v16.97c0,2-1.6,3.62-3.61,3.62h-6.17c-2,0-3.62-1.62-3.62-3.62V90.09C727.75,92.58,724.1,97.97,724.1,104.2z"/>
		<path class="st11" d="M675.49,104.2c0,8.63,6.99,15.62,15.62,15.62c8.63,0,15.62-6.99,15.62-15.62c0-6.23-3.64-11.62-8.92-14.11
			v16.97c0,2-1.62,3.62-3.62,3.62h-6.17c-2,0-3.6-1.62-3.6-3.62V90.09C679.13,92.58,675.49,97.97,675.49,104.2z"/>
		<path class="st11" d="M626.86,104.2c0,8.63,6.99,15.62,15.62,15.62c8.63,0,15.62-6.99,15.62-15.62c0-6.23-3.64-11.62-8.92-14.11
			v16.97c0,2-1.62,3.62-3.6,3.62h-6.19c-1.98,0-3.6-1.62-3.6-3.62V90.09C630.5,92.58,626.86,97.97,626.86,104.2z"/>
		<path class="st11" d="M578.23,104.2c0,8.63,6.99,15.62,15.62,15.62c8.63,0,15.62-6.99,15.62-15.62c0-6.23-3.64-11.62-8.92-14.11
			v16.97c0,2-1.62,3.62-3.6,3.62h-6.19c-1.98,0-3.61-1.62-3.61-3.62V90.09C581.87,92.58,578.23,97.97,578.23,104.2z"/>
		<path class="st11" d="M529.6,104.2c0,8.63,6.99,15.62,15.62,15.62c8.63,0,15.64-6.99,15.64-15.62c0-6.23-3.66-11.62-8.94-14.11
			v16.97c0,2-1.6,3.62-3.6,3.62h-6.17c-2,0-3.62-1.62-3.62-3.62V90.09C533.24,92.58,529.6,97.97,529.6,104.2z"/>
		<path class="st11" d="M480.98,104.2c0,8.63,6.99,15.62,15.62,15.62c8.63,0,15.62-6.99,15.62-15.62c0-6.23-3.64-11.62-8.92-14.11
			v16.97c0,2-1.62,3.62-3.62,3.62h-6.17c-2,0-3.6-1.62-3.6-3.62V90.09C484.62,92.58,480.98,97.97,480.98,104.2z"/>
		<path class="st11" d="M432.35,104.2c0,8.63,6.99,15.62,15.62,15.62c8.63,0,15.62-6.99,15.62-15.62c0-6.23-3.64-11.62-8.92-14.11
			v16.97c0,2-1.62,3.62-3.6,3.62h-6.19c-1.98,0-3.6-1.62-3.6-3.62V90.09C435.99,92.58,432.35,97.97,432.35,104.2z"/>
		<path class="st11" d="M383.72,104.2c0,8.63,6.99,15.62,15.62,15.62c8.63,0,15.62-6.99,15.62-15.62c0-6.23-3.64-11.62-8.92-14.11
			v16.97c0,2-1.62,3.62-3.6,3.62h-6.19c-1.98,0-3.6-1.62-3.6-3.62V90.09C387.36,92.58,383.72,97.97,383.72,104.2z"/>
		<path class="st11" d="M335.09,104.2c0,8.63,6.99,15.62,15.62,15.62c8.63,0,15.64-6.99,15.64-15.62c0-6.23-3.66-11.62-8.94-14.11
			v16.97c0,2-1.6,3.62-3.61,3.62h-6.17c-2,0-3.62-1.62-3.62-3.62V90.09C338.73,92.58,335.09,97.97,335.09,104.2z"/>
		<path class="st11" d="M286.47,104.2c0,8.63,6.99,15.62,15.62,15.62c8.63,0,15.62-6.99,15.62-15.62c0-6.23-3.64-11.62-8.92-14.11
			v16.97c0,2-1.62,3.62-3.62,3.62H299c-2,0-3.6-1.62-3.6-3.62V90.09C290.12,92.58,286.47,97.97,286.47,104.2z"/>
		<path class="st11" d="M237.84,104.2c0,8.63,6.99,15.62,15.62,15.62c8.63,0,15.62-6.99,15.62-15.62c0-6.23-3.64-11.62-8.92-14.11
			v16.97c0,2-1.62,3.62-3.6,3.62h-6.19c-1.98,0-3.6-1.62-3.6-3.62V90.09C241.48,92.58,237.84,97.97,237.84,104.2z"/>
		<path class="st11" d="M189.21,104.2c0,8.63,6.99,15.62,15.62,15.62c8.63,0,15.62-6.99,15.62-15.62c0-6.23-3.64-11.62-8.92-14.11
			v16.97c0,2-1.62,3.62-3.6,3.62h-6.19c-1.98,0-3.6-1.62-3.6-3.62V90.09C192.85,92.58,189.21,97.97,189.21,104.2z"/>
		<path class="st11" d="M140.58,104.2c0,8.63,6.99,15.62,15.62,15.62c8.63,0,15.64-6.99,15.64-15.62c0-6.23-3.66-11.62-8.94-14.11
			v16.97c0,2-1.6,3.62-3.6,3.62h-6.17c-2,0-3.62-1.62-3.62-3.62V90.09C144.22,92.58,140.58,97.97,140.58,104.2z"/>
		<path class="st11" d="M91.97,104.2c0,8.63,6.99,15.62,15.62,15.62c8.63,0,15.62-6.99,15.62-15.62c0-6.23-3.64-11.62-8.92-14.11
			v16.97c0,2-1.62,3.62-3.62,3.62h-6.17c-2,0-3.6-1.62-3.6-3.62V90.09C95.61,92.58,91.97,97.97,91.97,104.2z"/>
		<path class="st6" d="M878.92,90.09v16.97c0,2,1.6,3.62,3.61,3.62h6.17c2,0,3.62-1.62,3.62-3.62V90.09V67.89v-35.9V3.6
			c0-1.98-1.62-3.6-3.62-3.6h-6.17c-2,0-3.61,1.62-3.61,3.6v28.39v35.9V90.09z"/>
		<path class="st6" d="M830.29,90.09v16.97c0,2,1.62,3.62,3.6,3.62h6.19c1.98,0,3.6-1.62,3.6-3.62V90.09V67.89v-35.9V3.6
			c0-1.98-1.62-3.6-3.6-3.6h-6.19c-1.98,0-3.6,1.62-3.6,3.6v28.39v35.9V90.09z"/>
		<path class="st6" d="M781.66,90.09v16.97c0,2,1.62,3.62,3.61,3.62h6.19c1.98,0,3.6-1.62,3.6-3.62V90.09V67.89v-35.9V3.6
			c0-1.98-1.62-3.6-3.6-3.6h-6.19c-1.98,0-3.61,1.62-3.61,3.6v28.39v35.9V90.09z"/>
		<path class="st6" d="M733.03,90.09v16.97c0,2,1.62,3.62,3.62,3.62h6.17c2,0,3.61-1.62,3.61-3.62V90.09V67.89v-35.9V3.6
			c0-1.98-1.6-3.6-3.61-3.6h-6.17c-2,0-3.62,1.62-3.62,3.6v28.39v35.9V90.09z"/>
		<path class="st6" d="M684.41,90.09v16.97c0,2,1.6,3.62,3.6,3.62h6.17c2,0,3.62-1.62,3.62-3.62V90.09V67.89v-35.9V3.6
			c0-1.98-1.62-3.6-3.62-3.6h-6.17c-2,0-3.6,1.62-3.6,3.6v28.39v35.9V90.09z"/>
		<path class="st6" d="M635.78,90.09v16.97c0,2,1.62,3.62,3.6,3.62h6.19c1.98,0,3.6-1.62,3.6-3.62V90.09V67.89v-35.9V3.6
			c0-1.98-1.62-3.6-3.6-3.6h-6.19c-1.98,0-3.6,1.62-3.6,3.6v28.39v35.9V90.09z"/>
		<path class="st6" d="M587.15,90.09v16.97c0,2,1.62,3.62,3.61,3.62h6.19c1.98,0,3.6-1.62,3.6-3.62V90.09V67.89v-35.9V3.6
			c0-1.98-1.62-3.6-3.6-3.6h-6.19c-1.98,0-3.61,1.62-3.61,3.6v28.39v35.9V90.09z"/>
		<path class="st6" d="M538.52,90.09v16.97c0,2,1.62,3.62,3.62,3.62h6.17c2,0,3.6-1.62,3.6-3.62V90.09V67.89v-35.9V3.6
			c0-1.98-1.6-3.6-3.6-3.6h-6.17c-2,0-3.62,1.62-3.62,3.6v28.39v35.9V90.09z"/>
		<path class="st6" d="M489.9,90.09v16.97c0,2,1.6,3.62,3.6,3.62h6.17c2,0,3.62-1.62,3.62-3.62V90.09V67.89v-35.9V3.6
			c0-1.98-1.62-3.6-3.62-3.6h-6.17c-2,0-3.6,1.62-3.6,3.6v28.39v35.9V90.09z"/>
		<path class="st6" d="M441.27,90.09v16.97c0,2,1.62,3.62,3.6,3.62h6.19c1.98,0,3.6-1.62,3.6-3.62V90.09V67.89v-35.9V3.6
			c0-1.98-1.62-3.6-3.6-3.6h-6.19c-1.98,0-3.6,1.62-3.6,3.6v28.39v35.9V90.09z"/>
		<path class="st6" d="M392.64,90.09v16.97c0,2,1.62,3.62,3.6,3.62h6.19c1.98,0,3.6-1.62,3.6-3.62V90.09V67.89v-35.9V3.6
			c0-1.98-1.62-3.6-3.6-3.6h-6.19c-1.98,0-3.6,1.62-3.6,3.6v28.39v35.9V90.09z"/>
		<path class="st6" d="M344.01,90.09v16.97c0,2,1.62,3.62,3.62,3.62h6.17c2,0,3.61-1.62,3.61-3.62V90.09V67.89v-35.9V3.6
			c0-1.98-1.6-3.6-3.61-3.6h-6.17c-2,0-3.62,1.62-3.62,3.6v28.39v35.9V90.09z"/>
		<path class="st6" d="M295.4,90.09v16.97c0,2,1.6,3.62,3.6,3.62h6.17c2,0,3.62-1.62,3.62-3.62V90.09V67.89v-35.9V3.6
			c0-1.98-1.62-3.6-3.62-3.6H299c-2,0-3.6,1.62-3.6,3.6v28.39v35.9V90.09z"/>
		<path class="st6" d="M246.76,90.09v16.97c0,2,1.62,3.62,3.6,3.62h6.19c1.98,0,3.6-1.62,3.6-3.62V90.09V67.89v-35.9V3.6
			c0-1.98-1.62-3.6-3.6-3.6h-6.19c-1.98,0-3.6,1.62-3.6,3.6v28.39v35.9V90.09z"/>
		<path class="st6" d="M198.13,90.09v16.97c0,2,1.62,3.62,3.6,3.62h6.19c1.98,0,3.6-1.62,3.6-3.62V90.09V67.89v-35.9V3.6
			c0-1.98-1.62-3.6-3.6-3.6h-6.19c-1.98,0-3.6,1.62-3.6,3.6v28.39v35.9V90.09z"/>
		<path class="st6" d="M149.5,90.09v16.97c0,2,1.62,3.62,3.62,3.62h6.17c2,0,3.6-1.62,3.6-3.62V90.09V67.89v-35.9V3.6
			c0-1.98-1.6-3.6-3.6-3.6h-6.17c-2,0-3.62,1.62-3.62,3.6v28.39v35.9V90.09z"/>
		<path class="st6" d="M100.89,90.09v16.97c0,2,1.6,3.62,3.6,3.62h6.17c2,0,3.62-1.62,3.62-3.62V90.09V67.89v-35.9V3.6
			c0-1.98-1.62-3.6-3.62-3.6h-6.17c-2,0-3.6,1.62-3.6,3.6v28.39v35.9V90.09z"/>
		<rect x="114.29" y="31.99" class="st13" width="35.21" height="35.9"/>
		<rect x="162.9" y="31.99" class="st13" width="35.23" height="35.9"/>
		<rect x="211.53" y="31.99" class="st13" width="35.23" height="35.9"/>
		<rect x="260.16" y="31.99" class="st13" width="35.23" height="35.9"/>
		<rect x="308.8" y="31.99" class="st13" width="35.21" height="35.9"/>
		<rect x="357.41" y="31.99" class="st13" width="35.23" height="35.9"/>
		<rect x="406.04" y="31.99" class="st13" width="35.23" height="35.9"/>
		<rect x="454.67" y="31.99" class="st13" width="35.23" height="35.9"/>
		<rect x="503.3" y="31.99" class="st13" width="35.21" height="35.9"/>
		<rect x="551.92" y="31.99" class="st13" width="35.23" height="35.9"/>
		<rect x="600.55" y="31.99" class="st13" width="35.23" height="35.9"/>
		<rect x="649.18" y="31.99" class="st13" width="35.23" height="35.9"/>
		<rect x="697.81" y="31.99" class="st13" width="35.21" height="35.9"/>
		<rect x="746.43" y="31.99" class="st13" width="35.23" height="35.9"/>
		<rect x="795.06" y="31.99" class="st13" width="35.23" height="35.9"/>
		<rect x="843.69" y="31.99" class="st13" width="35.23" height="35.9"/>
		
			<rect x="-319.13" y="419.56" transform="matrix(-1.836970e-16 1 -1 -1.836970e-16 470.1027 387.0223)" class="st7" width="721.34" height="18.01"/>
		
			<rect x="487.77" y="352" transform="matrix(-1.836970e-16 1 -1 -1.836970e-16 1294.6483 301.4579)" class="st7" width="17.65" height="892.1"/>
	</g>
	<g>
		<g>
			<line class="st15" x1="924.6" y1="485.07" x2="909.6" y2="485.07"/>
			<line class="st16" x1="879.01" y1="485.07" x2="98.9" y2="485.07"/>
			<line class="st15" x1="83.6" y1="485.07" x2="68.6" y2="485.07"/>
		</g>
	</g>
</g>
</svg>
