<?xml version="1.0" encoding="utf-8"?>
<!-- Generator: Adobe Illustrator 24.1.1, SVG Export Plug-In . SVG Version: 6.00 Build 0)  -->
<svg version="1.1" id="Layer_1" xmlns="http://www.w3.org/2000/svg" xmlns:xlink="http://www.w3.org/1999/xlink" x="0px" y="0px"
	 viewBox="0 0 92.48 92.48" style="enable-background:new 0 0 92.48 92.48;" xml:space="preserve">
<style type="text/css">
	.st0{fill:#7EB928;}
	.st1{fill:#FFFFFF;}
	.st2{fill:#03261D;}
</style>
<g>
	<path class="st0" d="M46.24,0C20.74,0,0,20.74,0,46.24c0,25.5,20.74,46.24,46.24,46.24c25.5,0,46.24-20.74,46.24-46.24
		C92.48,20.74,71.74,0,46.24,0z"/>
	<g>
		<circle class="st1" cx="34.43" cy="21.95" r="7.62"/>
		<path class="st1" d="M24.06,32.08c0,2.16-1.75,3.91-3.91,3.91s-3.91-1.75-3.91-3.91s1.75-3.91,3.91-3.91S24.06,29.92,24.06,32.08z
			"/>
	</g>
	<g>
		<path class="st2" d="M36.61,72.59c-4.65,0-8.01-3.38-8.75-8.83l-0.04-0.23V24.42l0.04-0.23c0.75-5.44,4.1-8.82,8.75-8.82
			c2.49,0,5.07,0.98,7.7,2.91l19.94,14.69c3.82,2.82,6.01,6.83,6.01,11.01c0,4.18-2.19,8.19-6.01,11l-19.94,14.7
			C41.69,71.61,39.09,72.59,36.61,72.59L36.61,72.59z"/>
		<path class="st2" d="M36.61,77.12c-4.65,0-8.01-3.38-8.75-8.83l-0.04-0.23V28.95l0.04-0.23c0.75-5.44,4.1-8.82,8.75-8.82
			c2.49,0,5.07,0.98,7.7,2.91l19.94,14.69c3.82,2.82,6.01,6.83,6.01,11.01c0,4.18-2.19,8.19-6.01,11L44.31,74.2
			C41.69,76.14,39.09,77.12,36.61,77.12L36.61,77.12z"/>
		<path class="st1" d="M62.24,35.7L42.3,21.01c-5.59-4.11-10.25-2.41-11.08,3.64V63.3c0.83,6.05,5.49,7.75,11.08,3.64l19.94-14.7
			C68.41,47.69,68.41,40.25,62.24,35.7z"/>
	</g>
</g>
</svg>
