<?xml version="1.0" encoding="utf-8"?>
<!-- Generator: Adobe Illustrator 24.1.1, SVG Export Plug-In . SVG Version: 6.00 Build 0)  -->
<svg version="1.1" id="Layer_1" xmlns="http://www.w3.org/2000/svg" xmlns:xlink="http://www.w3.org/1999/xlink" x="0px" y="0px"
	 viewBox="0 0 92.48 92.48" style="enable-background:new 0 0 92.48 92.48;" xml:space="preserve">
<style type="text/css">
	.st0{fill:#7EB928;}
	.st1{fill:#FFFFFF;}
	.st2{fill:#03261D;}
</style>
<g>
	<path class="st0" d="M50.46,0.19C21.65-2.38-2.38,21.66,0.19,50.46c1.97,22.08,19.75,39.86,41.84,41.83
		c28.81,2.56,52.84-21.47,50.27-50.28C90.32,19.93,72.54,2.15,50.46,0.19z"/>
	<g>
		<circle class="st1" cx="33.73" cy="16.75" r="7.62"/>
		<circle class="st1" cx="19.46" cy="26.88" r="3.91"/>
	</g>
	<g>
		<path class="st2" d="M69.86,43.98c0-3.1-1.91-5.75-4.6-6.87c2.7-1.12,4.6-3.77,4.6-6.87c0-4.1-3.34-7.44-7.44-7.44H30.06
			c-4.1,0-7.44,3.34-7.44,7.44c0,3.1,1.91,5.75,4.6,6.87c-2.7,1.12-4.6,3.78-4.6,6.87c0,3.1,1.9,5.75,4.6,6.88
			c-2.7,1.12-4.6,3.77-4.6,6.87c0,4.1,3.34,7.44,7.44,7.44h32.37c4.1,0,7.44-3.33,7.44-7.44c0-3.1-1.9-5.75-4.6-6.87
			C67.96,49.73,69.86,47.07,69.86,43.98z"/>
		<path class="st2" d="M69.86,48.51c0-3.1-1.91-5.75-4.6-6.87c2.7-1.12,4.6-3.77,4.6-6.87c0-4.1-3.34-7.44-7.44-7.44H30.06
			c-4.1,0-7.44,3.34-7.44,7.44c0,3.1,1.91,5.75,4.6,6.87c-2.7,1.12-4.6,3.78-4.6,6.87c0,3.1,1.9,5.75,4.6,6.88
			c-2.7,1.12-4.6,3.77-4.6,6.87c0,4.1,3.34,7.44,7.44,7.44h32.37c4.1,0,7.44-3.33,7.44-7.44c0-3.1-1.9-5.75-4.6-6.87
			C67.96,54.26,69.86,51.6,69.86,48.51z"/>
		<g>
			<path class="st1" d="M30.06,34.28h32.37c2.23,0,4.04-1.81,4.04-4.05c0-2.23-1.81-4.05-4.04-4.05H30.06
				c-2.24,0-4.04,1.81-4.04,4.05C26.01,32.46,27.82,34.28,30.06,34.28z"/>
			<path class="st1" d="M62.43,39.93H30.06c-2.24,0-4.04,1.81-4.04,4.04c0,2.24,1.81,4.05,4.04,4.05h32.37
				c2.23,0,4.04-1.81,4.04-4.05C66.47,41.74,64.66,39.93,62.43,39.93z"/>
			<path class="st1" d="M62.43,53.68H30.06c-2.24,0-4.04,1.81-4.04,4.04s1.81,4.04,4.04,4.04h32.37c2.23,0,4.04-1.81,4.04-4.04
				S64.66,53.68,62.43,53.68z"/>
		</g>
	</g>
</g>
</svg>
