<?xml version="1.0" encoding="utf-8"?>
<!-- Generator: Adobe Illustrator 24.1.1, SVG Export Plug-In . SVG Version: 6.00 Build 0)  -->
<svg version="1.1" id="Layer_1" xmlns="http://www.w3.org/2000/svg" xmlns:xlink="http://www.w3.org/1999/xlink" x="0px" y="0px"
	 viewBox="0 0 92.48 92.48" style="enable-background:new 0 0 92.48 92.48;" xml:space="preserve">
<style type="text/css">
	.st0{fill:#7EB928;}
	.st1{fill:#FFFFFF;}
	.st2{fill:#03261D;}
</style>
<g>
	<path class="st0" d="M46.24,0C20.74,0,0,20.74,0,46.24c0,25.5,20.74,46.24,46.24,46.24c25.5,0,46.24-20.74,46.24-46.24
		C92.48,20.74,71.74,0,46.24,0z"/>
	<g>
		<circle class="st1" cx="34.43" cy="25.01" r="7.62"/>
		<circle class="st1" cx="20.16" cy="35.14" r="3.91"/>
	</g>
	<g>
		<path class="st2" d="M46.23,69.23c-12.49,0-22.66-10.17-22.66-22.66c0-9.59,5.94-17.96,14.75-21.22l0-0.55l0.03-0.23
			c0.45-3.49,2.84-5.84,5.97-5.84c1.56,0,3.14,0.57,4.71,1.7l9.67,6.97c2.32,1.67,3.66,4.11,3.68,6.69c0.01,1.6-0.48,3.16-1.41,4.52
			c4.38,0.01,7.93,3.57,7.93,7.96C68.9,59.06,58.73,69.23,46.23,69.23z M39.49,46.89c0.17,3.58,3.13,6.44,6.75,6.44
			c3.72,0,6.75-3.03,6.75-6.76c0-0.49,0.04-0.97,0.13-1.43l-3.83,2.88c-1.58,1.19-3.19,1.8-4.79,1.8
			C42.34,49.81,40.55,48.72,39.49,46.89z"/>
		<path class="st2" d="M46.23,73.76c-12.49,0-22.66-10.17-22.66-22.66c0-9.59,5.94-17.96,14.75-21.22l0-0.55l0.03-0.23
			c0.45-3.49,2.84-5.84,5.97-5.84c1.56,0,3.14,0.57,4.71,1.7l9.67,6.97c2.32,1.67,3.66,4.11,3.68,6.69c0.01,1.6-0.48,3.16-1.41,4.52
			c4.38,0.01,7.93,3.58,7.93,7.96C68.9,63.59,58.73,73.76,46.23,73.76z M39.49,51.42c0.17,3.58,3.13,6.44,6.75,6.44
			c3.72,0,6.75-3.03,6.75-6.76c0-0.49,0.04-0.97,0.13-1.43l-3.83,2.88c-1.58,1.19-3.19,1.8-4.79,1.8
			C42.34,54.34,40.55,53.25,39.49,51.42z"/>
		<path class="st1" d="M60.94,42c-2.52,0-4.56,2.04-4.56,4.56c0,5.59-4.55,10.15-10.15,10.15c-5.59,0-10.15-4.56-10.15-10.15
			c0-4.02,2.36-7.5,5.75-9.14l0.06,6.16c0.43,2.91,2.68,3.73,5.35,1.71l9.53-7.18c2.95-2.22,2.92-5.8-0.08-7.97l-9.68-6.97
			c-2.71-1.96-4.94-1.11-5.32,1.82l0.03,2.85c-8.47,2.03-14.77,9.64-14.77,18.72c0,10.62,8.64,19.27,19.26,19.27
			S65.5,57.19,65.5,46.56C65.5,44.05,63.46,42,60.94,42z"/>
	</g>
</g>
</svg>
